<svg width="556" height="398" viewBox="0 0 556 398" fill="none" xmlns="http://www.w3.org/2000/svg">
<path d="M301 196C301 274.424 233.619 338 150.5 338C67.3811 338 0 274.424 0 196C0 117.576 67.3811 54 150.5 54C233.619 54 301 117.576 301 196ZM75.8056 196C75.8056 234.923 109.247 266.476 150.5 266.476C191.753 266.476 225.194 234.923 225.194 196C225.194 157.077 191.753 125.524 150.5 125.524C109.247 125.524 75.8056 157.077 75.8056 196Z" fill="#F58620"/>
<path d="M267.47 285.352C290.776 258.191 302.649 223.876 300.816 188.972C298.982 154.068 283.572 121.028 257.535 96.1745C231.497 71.3208 196.66 56.3991 159.691 54.265C122.721 52.1309 86.2164 62.9343 57.1616 84.6077C28.1067 106.281 8.54277 137.302 2.21361 171.735C-4.11555 206.167 3.23464 241.593 22.8576 271.232C42.4805 300.871 72.9979 322.641 108.57 332.378C144.142 342.114 182.269 339.132 215.657 324.002L182.838 259.529C166.267 267.038 147.344 268.518 129.69 263.685C112.035 258.853 96.889 248.048 87.15 233.338C77.411 218.628 73.763 201.046 76.9043 183.957C80.0455 166.868 89.7552 151.472 104.175 140.715C118.596 129.958 136.713 124.597 155.061 125.656C173.41 126.715 190.699 134.121 203.622 146.456C216.545 158.791 224.193 175.189 225.103 192.512C226.013 209.835 220.12 226.866 208.553 240.346L267.47 285.352Z" fill="#E12A2A"/>
<path d="M299.298 217.298C303.225 192.871 300.33 167.9 290.898 144.852C281.466 121.804 265.823 101.476 245.516 85.8779C225.209 70.2797 200.94 59.9505 175.107 55.9109C149.274 51.8713 122.771 54.2611 98.2165 62.8441L124.551 129.914C136.738 125.654 149.892 124.468 162.713 126.473C175.534 128.478 187.579 133.604 197.657 141.346C207.736 149.087 215.499 159.176 220.181 170.615C224.862 182.054 226.299 194.447 224.349 206.57L299.298 217.298Z" fill="#DBC60B"/>
<path d="M281.065 125.374C266.435 101.297 244.649 81.7934 218.399 69.2726C192.148 56.7519 162.585 51.7634 133.362 54.9237C104.14 58.0839 76.539 69.2544 53.972 87.0545C31.405 104.855 14.8609 128.504 6.38454 155.079C-2.09181 181.654 -2.12879 209.991 6.27817 236.586C14.6851 263.181 31.1675 286.868 53.688 304.721C76.2084 322.573 103.78 333.808 132.994 337.036C162.208 340.264 191.785 335.344 218.068 322.885L184.034 258.974C170.99 265.158 156.311 267.6 141.812 265.997C127.312 264.395 113.628 258.819 102.451 249.959C91.2743 241.099 83.094 229.342 78.9215 216.143C74.7491 202.944 74.7674 188.88 78.9743 175.691C83.1812 162.501 91.3922 150.764 102.592 141.929C113.793 133.095 127.491 127.551 141.994 125.983C156.498 124.414 171.17 126.89 184.199 133.104C197.227 139.318 208.04 148.998 215.3 160.948L281.065 125.374Z" fill="#59EAFE"/>
<path d="M402.986 18V4.90909H404.571V16.5938H410.656V18H402.986ZM412.906 18V8.18182H414.415V18H412.906ZM413.673 6.54545C413.379 6.54545 413.126 6.44531 412.912 6.24503C412.704 6.04474 412.599 5.80398 412.599 5.52273C412.599 5.24148 412.704 5.00071 412.912 4.80043C413.126 4.60014 413.379 4.5 413.673 4.5C413.967 4.5 414.219 4.60014 414.427 4.80043C414.64 5.00071 414.747 5.24148 414.747 5.52273C414.747 5.80398 414.64 6.04474 414.427 6.24503C414.219 6.44531 413.967 6.54545 413.673 6.54545ZM423.876 21.6818V16.4915H423.749C423.638 16.6705 423.48 16.8963 423.276 17.169C423.071 17.4375 422.779 17.6783 422.4 17.8913C422.021 18.1001 421.516 18.2045 420.885 18.2045C420.067 18.2045 419.344 17.9979 418.718 17.5845C418.092 17.1669 417.602 16.5788 417.248 15.8203C416.894 15.0575 416.717 14.1562 416.717 13.1165C416.717 12.0852 416.894 11.1903 417.248 10.4318C417.602 9.6733 418.094 9.08736 418.724 8.67401C419.355 8.26065 420.084 8.05398 420.911 8.05398C421.55 8.05398 422.055 8.16051 422.425 8.37358C422.8 8.58239 423.086 8.82102 423.282 9.08949C423.482 9.35369 423.638 9.57102 423.749 9.74148H423.928V8.18182H425.385V21.6818H423.876ZM421.089 16.8494C421.695 16.8494 422.206 16.6918 422.624 16.3764C423.041 16.0568 423.359 15.6158 423.576 15.0533C423.793 14.4865 423.902 13.8324 423.902 13.0909C423.902 12.358 423.795 11.7166 423.582 11.1669C423.369 10.6129 423.054 10.1825 422.636 9.87571C422.219 9.56463 421.703 9.40909 421.089 9.40909C420.45 9.40909 419.918 9.57315 419.491 9.90128C419.07 10.2251 418.752 10.6662 418.539 11.2244C418.33 11.7784 418.226 12.4006 418.226 13.0909C418.226 13.7898 418.332 14.4247 418.545 14.9957C418.763 15.5625 419.082 16.0142 419.504 16.3509C419.93 16.6832 420.459 16.8494 421.089 16.8494ZM434.334 13.9858V8.18182H435.842V18H434.334V16.3381H434.232C434.001 16.8366 433.643 17.2607 433.158 17.6101C432.672 17.9553 432.058 18.1278 431.317 18.1278C430.703 18.1278 430.158 17.9936 429.68 17.7251C429.203 17.4524 428.828 17.0433 428.555 16.4979C428.283 15.9482 428.146 15.2557 428.146 14.4205V8.18182H429.655V14.3182C429.655 15.0341 429.855 15.6051 430.256 16.0312C430.661 16.4574 431.176 16.6705 431.803 16.6705C432.178 16.6705 432.559 16.5746 432.947 16.3828C433.339 16.1911 433.667 15.897 433.931 15.5007C434.2 15.1044 434.334 14.5994 434.334 13.9858ZM438.605 18V8.18182H440.114V18H438.605ZM439.372 6.54545C439.078 6.54545 438.825 6.44531 438.612 6.24503C438.403 6.04474 438.298 5.80398 438.298 5.52273C438.298 5.24148 438.403 5.00071 438.612 4.80043C438.825 4.60014 439.078 4.5 439.372 4.5C439.666 4.5 439.918 4.60014 440.127 4.80043C440.34 5.00071 440.446 5.24148 440.446 5.52273C440.446 5.80398 440.34 6.04474 440.127 6.24503C439.918 6.44531 439.666 6.54545 439.372 6.54545ZM446.584 18.2045C445.766 18.2045 445.044 17.9979 444.417 17.5845C443.791 17.1669 443.301 16.5788 442.947 15.8203C442.593 15.0575 442.417 14.1562 442.417 13.1165C442.417 12.0852 442.593 11.1903 442.947 10.4318C443.301 9.6733 443.793 9.08736 444.424 8.67401C445.054 8.26065 445.783 8.05398 446.61 8.05398C447.249 8.05398 447.754 8.16051 448.125 8.37358C448.5 8.58239 448.785 8.82102 448.981 9.08949C449.181 9.35369 449.337 9.57102 449.448 9.74148H449.576V4.90909H451.084V18H449.627V16.4915H449.448C449.337 16.6705 449.179 16.8963 448.975 17.169C448.77 17.4375 448.478 17.6783 448.099 17.8913C447.72 18.1001 447.215 18.2045 446.584 18.2045ZM446.789 16.8494C447.394 16.8494 447.905 16.6918 448.323 16.3764C448.74 16.0568 449.058 15.6158 449.275 15.0533C449.493 14.4865 449.601 13.8324 449.601 13.0909C449.601 12.358 449.495 11.7166 449.282 11.1669C449.069 10.6129 448.753 10.1825 448.336 9.87571C447.918 9.56463 447.402 9.40909 446.789 9.40909C446.15 9.40909 445.617 9.57315 445.191 9.90128C444.769 10.2251 444.451 10.6662 444.238 11.2244C444.029 11.7784 443.925 12.4006 443.925 13.0909C443.925 13.7898 444.032 14.4247 444.245 14.9957C444.462 15.5625 444.782 16.0142 445.203 16.3509C445.63 16.6832 446.158 16.8494 446.789 16.8494ZM454.056 18V8.18182H455.565V18H454.056ZM454.824 6.54545C454.529 6.54545 454.276 6.44531 454.063 6.24503C453.854 6.04474 453.75 5.80398 453.75 5.52273C453.75 5.24148 453.854 5.00071 454.063 4.80043C454.276 4.60014 454.529 4.5 454.824 4.5C455.118 4.5 455.369 4.60014 455.578 4.80043C455.791 5.00071 455.897 5.24148 455.897 5.52273C455.897 5.80398 455.791 6.04474 455.578 6.24503C455.369 6.44531 455.118 6.54545 454.824 6.54545ZM462.598 8.18182V9.46023H457.51V8.18182H462.598ZM458.993 5.82955H460.501V15.1875C460.501 15.6136 460.563 15.9332 460.687 16.1463C460.814 16.3551 460.976 16.4957 461.172 16.5682C461.373 16.6364 461.584 16.6705 461.805 16.6705C461.971 16.6705 462.108 16.6619 462.214 16.6449C462.321 16.6236 462.406 16.6065 462.47 16.5938L462.777 17.9489C462.675 17.9872 462.532 18.0256 462.349 18.0639C462.165 18.1065 461.933 18.1278 461.652 18.1278C461.226 18.1278 460.808 18.0362 460.399 17.853C459.994 17.6697 459.657 17.3906 459.389 17.0156C459.125 16.6406 458.993 16.1676 458.993 15.5966V5.82955ZM465.839 21.6818C465.583 21.6818 465.355 21.6605 465.155 21.6179C464.954 21.5795 464.816 21.5412 464.739 21.5028L465.123 20.1733C465.489 20.267 465.813 20.3011 466.094 20.2756C466.376 20.25 466.625 20.1243 466.842 19.8984C467.064 19.6768 467.266 19.3168 467.449 18.8182L467.731 18.0511L464.1 8.18182H465.736L468.447 16.0057H468.549L471.259 8.18182H472.895L468.728 19.4318C468.54 19.9389 468.308 20.3587 468.031 20.6911C467.754 21.0277 467.432 21.277 467.066 21.4389C466.704 21.6009 466.295 21.6818 465.839 21.6818ZM480.154 18V4.90909H484.577C485.604 4.90909 486.443 5.09446 487.095 5.4652C487.752 5.83168 488.237 6.32812 488.553 6.95455C488.868 7.58097 489.026 8.27983 489.026 9.05114C489.026 9.82244 488.868 10.5234 488.553 11.1541C488.242 11.7848 487.76 12.2876 487.108 12.6626C486.456 13.0334 485.621 13.2188 484.602 13.2188H481.432V11.8125H484.551C485.254 11.8125 485.819 11.6911 486.245 11.4482C486.671 11.2053 486.98 10.8771 487.172 10.4638C487.368 10.0462 487.466 9.57528 487.466 9.05114C487.466 8.52699 487.368 8.05824 487.172 7.64489C486.98 7.23153 486.669 6.90767 486.239 6.6733C485.808 6.43466 485.237 6.31534 484.526 6.31534H481.739V18H480.154ZM495.258 18.2045C494.372 18.2045 493.594 17.9936 492.925 17.5717C492.26 17.1499 491.74 16.5597 491.365 15.8011C490.994 15.0426 490.809 14.1562 490.809 13.142C490.809 12.1193 490.994 11.2266 491.365 10.4638C491.74 9.70099 492.26 9.10866 492.925 8.68679C493.594 8.26491 494.372 8.05398 495.258 8.05398C496.144 8.05398 496.92 8.26491 497.585 8.68679C498.254 9.10866 498.774 9.70099 499.144 10.4638C499.519 11.2266 499.707 12.1193 499.707 13.142C499.707 14.1562 499.519 15.0426 499.144 15.8011C498.774 16.5597 498.254 17.1499 497.585 17.5717C496.92 17.9936 496.144 18.2045 495.258 18.2045ZM495.258 16.8494C495.931 16.8494 496.485 16.6768 496.92 16.3317C497.355 15.9865 497.676 15.5327 497.885 14.9702C498.094 14.4077 498.198 13.7983 498.198 13.142C498.198 12.4858 498.094 11.8743 497.885 11.3075C497.676 10.7408 497.355 10.2827 496.92 9.93324C496.485 9.58381 495.931 9.40909 495.258 9.40909C494.585 9.40909 494.031 9.58381 493.596 9.93324C493.161 10.2827 492.84 10.7408 492.631 11.3075C492.422 11.8743 492.318 12.4858 492.318 13.142C492.318 13.7983 492.422 14.4077 492.631 14.9702C492.84 15.5327 493.161 15.9865 493.596 16.3317C494.031 16.6768 494.585 16.8494 495.258 16.8494ZM505.998 18.2045C505.112 18.2045 504.334 17.9936 503.665 17.5717C503 17.1499 502.48 16.5597 502.105 15.8011C501.735 15.0426 501.549 14.1562 501.549 13.142C501.549 12.1193 501.735 11.2266 502.105 10.4638C502.48 9.70099 503 9.10866 503.665 8.68679C504.334 8.26491 505.112 8.05398 505.998 8.05398C506.885 8.05398 507.66 8.26491 508.325 8.68679C508.994 9.10866 509.514 9.70099 509.885 10.4638C510.26 11.2266 510.447 12.1193 510.447 13.142C510.447 14.1562 510.26 15.0426 509.885 15.8011C509.514 16.5597 508.994 17.1499 508.325 17.5717C507.66 17.9936 506.885 18.2045 505.998 18.2045ZM505.998 16.8494C506.672 16.8494 507.225 16.6768 507.66 16.3317C508.095 15.9865 508.417 15.5327 508.625 14.9702C508.834 14.4077 508.939 13.7983 508.939 13.142C508.939 12.4858 508.834 11.8743 508.625 11.3075C508.417 10.7408 508.095 10.2827 507.66 9.93324C507.225 9.58381 506.672 9.40909 505.998 9.40909C505.325 9.40909 504.771 9.58381 504.336 9.93324C503.902 10.2827 503.58 10.7408 503.371 11.3075C503.162 11.8743 503.058 12.4858 503.058 13.142C503.058 13.7983 503.162 14.4077 503.371 14.9702C503.58 15.5327 503.902 15.9865 504.336 16.3317C504.771 16.6768 505.325 16.8494 505.998 16.8494ZM514.258 4.90909V18H512.75V4.90909H514.258Z" fill="white"/>
<path d="M406.937 42.7361C405.987 42.7361 405.143 42.5763 404.406 42.2567C403.673 41.9371 403.097 41.5003 402.68 40.9463C402.266 40.3881 402.062 39.7553 402.066 39.0479C402.062 38.4982 402.181 37.9932 402.424 37.533C402.667 37.0728 402.995 36.6892 403.408 36.3824C403.826 36.0713 404.291 35.8732 404.802 35.788V35.6985C404.129 35.5493 403.583 35.2063 403.166 34.6693C402.752 34.1282 402.548 33.5039 402.552 32.7965C402.548 32.1232 402.735 31.5223 403.114 30.9939C403.494 30.4655 404.014 30.05 404.674 29.7475C405.335 29.4407 406.089 29.2872 406.937 29.2872C407.776 29.2872 408.524 29.4407 409.18 29.7475C409.841 30.05 410.361 30.4655 410.74 30.9939C411.124 31.5223 411.315 32.1232 411.315 32.7965C411.315 33.5039 411.104 34.1282 410.683 34.6693C410.265 35.2063 409.726 35.5493 409.065 35.6985V35.788C409.577 35.8732 410.037 36.0713 410.446 36.3824C410.859 36.6892 411.188 37.0728 411.43 37.533C411.678 37.9932 411.801 38.4982 411.801 39.0479C411.801 39.7553 411.592 40.3881 411.175 40.9463C410.757 41.5003 410.182 41.9371 409.449 42.2567C408.72 42.5763 407.883 42.7361 406.937 42.7361ZM406.937 40.908C407.427 40.908 407.853 40.8249 408.215 40.6587C408.578 40.4882 408.859 40.2496 409.059 39.9428C409.259 39.636 409.362 39.2823 409.366 38.8817C409.362 38.4641 409.253 38.0955 409.04 37.7759C408.831 37.452 408.543 37.1985 408.177 37.0152C407.815 36.832 407.401 36.7404 406.937 36.7404C406.468 36.7404 406.051 36.832 405.684 37.0152C405.318 37.1985 405.028 37.452 404.815 37.7759C404.606 38.0955 404.504 38.4641 404.508 38.8817C404.504 39.2823 404.602 39.636 404.802 39.9428C405.002 40.2453 405.283 40.4818 405.646 40.6523C406.012 40.8228 406.443 40.908 406.937 40.908ZM406.937 34.9442C407.337 34.9442 407.691 34.8632 407.998 34.7013C408.309 34.5394 408.554 34.3135 408.733 34.0237C408.912 33.734 409.004 33.3995 409.008 33.0202C409.004 32.6452 408.914 32.3171 408.739 32.0358C408.565 31.7503 408.322 31.5309 408.011 31.3774C407.7 31.2198 407.342 31.1409 406.937 31.1409C406.524 31.1409 406.159 31.2198 405.844 31.3774C405.533 31.5309 405.29 31.7503 405.115 32.0358C404.945 32.3171 404.862 32.6452 404.866 33.0202C404.862 33.3995 404.947 33.734 405.122 34.0237C405.301 34.3093 405.546 34.5351 405.857 34.7013C406.172 34.8632 406.532 34.9442 406.937 34.9442ZM416.258 40.7674L416.175 41.4705C416.115 42.0074 416.009 42.5529 415.855 43.1068C415.706 43.6651 415.549 44.1786 415.382 44.6473C415.216 45.1161 415.082 45.4847 414.98 45.7532H413.42C413.48 45.4932 413.561 45.1395 413.663 44.6921C413.769 44.2446 413.872 43.7418 413.97 43.1835C414.068 42.6253 414.134 42.0585 414.168 41.4833L414.213 40.7674H416.258ZM423.153 42.8064C422.101 42.8064 421.198 42.5401 420.443 42.0074C419.693 41.4705 419.116 40.697 418.711 39.6871C418.31 38.6729 418.11 37.452 418.11 36.0245C418.114 34.5969 418.317 33.3824 418.717 32.381C419.122 31.3753 419.7 30.6083 420.45 30.0799C421.204 29.5514 422.105 29.2872 423.153 29.2872C424.202 29.2872 425.103 29.5514 425.857 30.0799C426.612 30.6083 427.189 31.3753 427.59 32.381C427.994 33.3867 428.197 34.6012 428.197 36.0245C428.197 37.4563 427.994 38.6793 427.59 39.6935C427.189 40.7034 426.612 41.4747 425.857 42.0074C425.107 42.5401 424.206 42.8064 423.153 42.8064ZM423.153 40.8057C423.972 40.8057 424.617 40.403 425.09 39.5976C425.568 38.788 425.806 37.5969 425.806 36.0245C425.806 34.9847 425.698 34.1111 425.48 33.4037C425.263 32.6963 424.956 32.1637 424.56 31.8057C424.163 31.4435 423.695 31.2624 423.153 31.2624C422.34 31.2624 421.696 31.6672 421.223 32.4769C420.75 33.2823 420.511 34.4648 420.507 36.0245C420.503 37.0685 420.607 37.9463 420.82 38.658C421.038 39.3696 421.345 39.9066 421.741 40.2688C422.137 40.6267 422.608 40.8057 423.153 40.8057ZM435.159 42.8064C434.107 42.8064 433.203 42.5401 432.449 42.0074C431.699 41.4705 431.122 40.697 430.717 39.6871C430.316 38.6729 430.116 37.452 430.116 36.0245C430.12 34.5969 430.323 33.3824 430.723 32.381C431.128 31.3753 431.706 30.6083 432.456 30.0799C433.21 29.5514 434.111 29.2872 435.159 29.2872C436.208 29.2872 437.109 29.5514 437.863 30.0799C438.617 30.6083 439.195 31.3753 439.595 32.381C440 33.3867 440.203 34.6012 440.203 36.0245C440.203 37.4563 440 38.6793 439.595 39.6935C439.195 40.7034 438.617 41.4747 437.863 42.0074C437.113 42.5401 436.212 42.8064 435.159 42.8064ZM435.159 40.8057C435.978 40.8057 436.623 40.403 437.096 39.5976C437.573 38.788 437.812 37.5969 437.812 36.0245C437.812 34.9847 437.703 34.1111 437.486 33.4037C437.269 32.6963 436.962 32.1637 436.566 31.8057C436.169 31.4435 435.701 31.2624 435.159 31.2624C434.345 31.2624 433.702 31.6672 433.229 32.4769C432.756 33.2823 432.517 34.4648 432.513 36.0245C432.509 37.0685 432.613 37.9463 432.826 38.658C433.044 39.3696 433.35 39.9066 433.747 40.2688C434.143 40.6267 434.614 40.8057 435.159 40.8057ZM447.165 42.8064C446.113 42.8064 445.209 42.5401 444.455 42.0074C443.705 41.4705 443.128 40.697 442.723 39.6871C442.322 38.6729 442.122 37.452 442.122 36.0245C442.126 34.5969 442.329 33.3824 442.729 32.381C443.134 31.3753 443.711 30.6083 444.461 30.0799C445.216 29.5514 446.117 29.2872 447.165 29.2872C448.214 29.2872 449.115 29.5514 449.869 30.0799C450.623 30.6083 451.201 31.3753 451.601 32.381C452.006 33.3867 452.209 34.6012 452.209 36.0245C452.209 37.4563 452.006 38.6793 451.601 39.6935C451.201 40.7034 450.623 41.4747 449.869 42.0074C449.119 42.5401 448.218 42.8064 447.165 42.8064ZM447.165 40.8057C447.983 40.8057 448.629 40.403 449.102 39.5976C449.579 38.788 449.818 37.5969 449.818 36.0245C449.818 34.9847 449.709 34.1111 449.492 33.4037C449.275 32.6963 448.968 32.1637 448.571 31.8057C448.175 31.4435 447.706 31.2624 447.165 31.2624C446.351 31.2624 445.708 31.6672 445.235 32.4769C444.762 33.2823 444.523 34.4648 444.519 36.0245C444.515 37.0685 444.619 37.9463 444.832 38.658C445.049 39.3696 445.356 39.9066 445.753 40.2688C446.149 40.6267 446.62 40.8057 447.165 40.8057ZM456.565 40.7674L456.482 41.4705C456.422 42.0074 456.315 42.5529 456.162 43.1068C456.013 43.6651 455.855 44.1786 455.689 44.6473C455.523 45.1161 455.389 45.4847 455.286 45.7532H453.727C453.786 45.4932 453.867 45.1395 453.97 44.6921C454.076 44.2446 454.178 43.7418 454.276 43.1835C454.374 42.6253 454.44 42.0585 454.475 41.4833L454.519 40.7674H456.565ZM463.46 42.8064C462.408 42.8064 461.504 42.5401 460.75 42.0074C460 41.4705 459.422 40.697 459.018 39.6871C458.617 38.6729 458.417 37.452 458.417 36.0245C458.421 34.5969 458.623 33.3824 459.024 32.381C459.429 31.3753 460.006 30.6083 460.756 30.0799C461.511 29.5514 462.412 29.2872 463.46 29.2872C464.508 29.2872 465.41 29.5514 466.164 30.0799C466.918 30.6083 467.496 31.3753 467.896 32.381C468.301 33.3867 468.503 34.6012 468.503 36.0245C468.503 37.4563 468.301 38.6793 467.896 39.6935C467.496 40.7034 466.918 41.4747 466.164 42.0074C465.414 42.5401 464.513 42.8064 463.46 42.8064ZM463.46 40.8057C464.278 40.8057 464.924 40.403 465.397 39.5976C465.874 38.788 466.113 37.5969 466.113 36.0245C466.113 34.9847 466.004 34.1111 465.787 33.4037C465.57 32.6963 465.263 32.1637 464.866 31.8057C464.47 31.4435 464.001 31.2624 463.46 31.2624C462.646 31.2624 462.003 31.6672 461.53 32.4769C461.057 33.2823 460.818 34.4648 460.814 36.0245C460.81 37.0685 460.914 37.9463 461.127 38.658C461.344 39.3696 461.651 39.9066 462.047 40.2688C462.444 40.6267 462.915 40.8057 463.46 40.8057ZM475.466 42.8064C474.413 42.8064 473.51 42.5401 472.756 42.0074C472.006 41.4705 471.428 40.697 471.024 39.6871C470.623 38.6729 470.423 37.452 470.423 36.0245C470.427 34.5969 470.629 33.3824 471.03 32.381C471.435 31.3753 472.012 30.6083 472.762 30.0799C473.516 29.5514 474.418 29.2872 475.466 29.2872C476.514 29.2872 477.416 29.5514 478.17 30.0799C478.924 30.6083 479.502 31.3753 479.902 32.381C480.307 33.3867 480.509 34.6012 480.509 36.0245C480.509 37.4563 480.307 38.6793 479.902 39.6935C479.502 40.7034 478.924 41.4747 478.17 42.0074C477.42 42.5401 476.519 42.8064 475.466 42.8064ZM475.466 40.8057C476.284 40.8057 476.93 40.403 477.403 39.5976C477.88 38.788 478.119 37.5969 478.119 36.0245C478.119 34.9847 478.01 34.1111 477.793 33.4037C477.575 32.6963 477.269 32.1637 476.872 31.8057C476.476 31.4435 476.007 31.2624 475.466 31.2624C474.652 31.2624 474.009 31.6672 473.536 32.4769C473.063 33.2823 472.824 34.4648 472.82 36.0245C472.815 37.0685 472.92 37.9463 473.133 38.658C473.35 39.3696 473.657 39.9066 474.053 40.2688C474.45 40.6267 474.921 40.8057 475.466 40.8057ZM487.472 42.8064C486.419 42.8064 485.516 42.5401 484.762 42.0074C484.012 41.4705 483.434 40.697 483.029 39.6871C482.629 38.6729 482.429 37.452 482.429 36.0245C482.433 34.5969 482.635 33.3824 483.036 32.381C483.441 31.3753 484.018 30.6083 484.768 30.0799C485.522 29.5514 486.424 29.2872 487.472 29.2872C488.52 29.2872 489.421 29.5514 490.176 30.0799C490.93 30.6083 491.507 31.3753 491.908 32.381C492.313 33.3867 492.515 34.6012 492.515 36.0245C492.515 37.4563 492.313 38.6793 491.908 39.6935C491.507 40.7034 490.93 41.4747 490.176 42.0074C489.426 42.5401 488.524 42.8064 487.472 42.8064ZM487.472 40.8057C488.29 40.8057 488.936 40.403 489.409 39.5976C489.886 38.788 490.125 37.5969 490.125 36.0245C490.125 34.9847 490.016 34.1111 489.799 33.4037C489.581 32.6963 489.274 32.1637 488.878 31.8057C488.482 31.4435 488.013 31.2624 487.472 31.2624C486.658 31.2624 486.014 31.6672 485.541 32.4769C485.068 33.2823 484.83 34.4648 484.826 36.0245C484.821 37.0685 484.926 37.9463 485.139 38.658C485.356 39.3696 485.663 39.9066 486.059 40.2688C486.456 40.6267 486.926 40.8057 487.472 40.8057ZM499.705 36.0117C499.705 34.4137 499.916 32.9456 500.337 31.6076C500.764 30.2652 501.396 29.0252 502.236 27.8874H504.416C504.092 28.3093 503.789 28.827 503.508 29.4407C503.227 30.05 502.982 30.7191 502.773 31.4478C502.568 32.1722 502.406 32.9243 502.287 33.7041C502.172 34.484 502.114 35.2532 502.114 36.0117C502.114 37.0216 502.215 38.0443 502.415 39.0799C502.619 40.1154 502.894 41.0763 503.239 41.9627C503.589 42.8448 503.981 43.5671 504.416 44.1296H502.236C501.396 42.9918 500.764 41.7539 500.337 40.4158C499.916 39.0735 499.705 37.6054 499.705 36.0117ZM510.841 42.7361C509.891 42.7361 509.047 42.5763 508.31 42.2567C507.577 41.9371 507.002 41.5003 506.584 40.9463C506.171 40.3881 505.966 39.7553 505.97 39.0479C505.966 38.4982 506.085 37.9932 506.328 37.533C506.571 37.0728 506.899 36.6892 507.313 36.3824C507.73 36.0713 508.195 35.8732 508.706 35.788V35.6985C508.033 35.5493 507.487 35.2063 507.07 34.6693C506.657 34.1282 506.452 33.5039 506.456 32.7965C506.452 32.1232 506.639 31.5223 507.019 30.9939C507.398 30.4655 507.918 30.05 508.578 29.7475C509.239 29.4407 509.993 29.2872 510.841 29.2872C511.681 29.2872 512.429 29.4407 513.085 29.7475C513.745 30.05 514.265 30.4655 514.644 30.9939C515.028 31.5223 515.22 32.1232 515.22 32.7965C515.22 33.5039 515.009 34.1282 514.587 34.6693C514.169 35.2063 513.63 35.5493 512.97 35.6985V35.788C513.481 35.8732 513.941 36.0713 514.35 36.3824C514.764 36.6892 515.092 37.0728 515.335 37.533C515.582 37.9932 515.706 38.4982 515.706 39.0479C515.706 39.7553 515.497 40.3881 515.079 40.9463C514.661 41.5003 514.086 41.9371 513.353 42.2567C512.625 42.5763 511.787 42.7361 510.841 42.7361ZM510.841 40.908C511.331 40.908 511.757 40.8249 512.12 40.6587C512.482 40.4882 512.763 40.2496 512.963 39.9428C513.164 39.636 513.266 39.2823 513.27 38.8817C513.266 38.4641 513.157 38.0955 512.944 37.7759C512.735 37.452 512.448 37.1985 512.081 37.0152C511.719 36.832 511.306 36.7404 510.841 36.7404C510.372 36.7404 509.955 36.832 509.588 37.0152C509.222 37.1985 508.932 37.452 508.719 37.7759C508.51 38.0955 508.408 38.4641 508.412 38.8817C508.408 39.2823 508.506 39.636 508.706 39.9428C508.907 40.2453 509.188 40.4818 509.55 40.6523C509.916 40.8228 510.347 40.908 510.841 40.908ZM510.841 34.9442C511.242 34.9442 511.595 34.8632 511.902 34.7013C512.213 34.5394 512.458 34.3135 512.637 34.0237C512.816 33.734 512.908 33.3995 512.912 33.0202C512.908 32.6452 512.818 32.3171 512.644 32.0358C512.469 31.7503 512.226 31.5309 511.915 31.3774C511.604 31.2198 511.246 31.1409 510.841 31.1409C510.428 31.1409 510.063 31.2198 509.748 31.3774C509.437 31.5309 509.194 31.7503 509.019 32.0358C508.849 32.3171 508.766 32.6452 508.77 33.0202C508.766 33.3995 508.851 33.734 509.026 34.0237C509.205 34.3093 509.45 34.5351 509.761 34.7013C510.076 34.8632 510.436 34.9442 510.841 34.9442ZM522.646 42.8064C521.593 42.8064 520.69 42.5401 519.935 42.0074C519.185 41.4705 518.608 40.697 518.203 39.6871C517.803 38.6729 517.602 37.452 517.602 36.0245C517.607 34.5969 517.809 33.3824 518.21 32.381C518.614 31.3753 519.192 30.6083 519.942 30.0799C520.696 29.5514 521.597 29.2872 522.646 29.2872C523.694 29.2872 524.595 29.5514 525.35 30.0799C526.104 30.6083 526.681 31.3753 527.082 32.381C527.487 33.3867 527.689 34.6012 527.689 36.0245C527.689 37.4563 527.487 38.6793 527.082 39.6935C526.681 40.7034 526.104 41.4747 525.35 42.0074C524.6 42.5401 523.698 42.8064 522.646 42.8064ZM522.646 40.8057C523.464 40.8057 524.109 40.403 524.582 39.5976C525.06 38.788 525.298 37.5969 525.298 36.0245C525.298 34.9847 525.19 34.1111 524.972 33.4037C524.755 32.6963 524.448 32.1637 524.052 31.8057C523.656 31.4435 523.187 31.2624 522.646 31.2624C521.832 31.2624 521.188 31.6672 520.715 32.4769C520.242 33.2823 520.004 34.4648 519.999 36.0245C519.995 37.0685 520.1 37.9463 520.313 38.658C520.53 39.3696 520.837 39.9066 521.233 40.2688C521.629 40.6267 522.1 40.8057 522.646 40.8057ZM536.812 40.1026V39.4122C536.812 38.9051 536.919 38.4385 537.132 38.0124C537.349 37.5862 537.664 37.2432 538.078 36.9833C538.491 36.7233 538.992 36.5934 539.58 36.5934C540.185 36.5934 540.692 36.7233 541.101 36.9833C541.51 37.2389 541.819 37.5799 542.028 38.006C542.241 38.4321 542.348 38.9009 542.348 39.4122V40.1026C542.348 40.6097 542.241 41.0763 542.028 41.5024C541.815 41.9286 541.502 42.2716 541.088 42.5316C540.679 42.7915 540.176 42.9215 539.58 42.9215C538.983 42.9215 538.478 42.7915 538.065 42.5316C537.652 42.2716 537.338 41.9286 537.125 41.5024C536.916 41.0763 536.812 40.6097 536.812 40.1026ZM538.48 39.4122V40.1026C538.48 40.4392 538.561 40.7482 538.723 41.0294C538.885 41.3107 539.171 41.4513 539.58 41.4513C539.993 41.4513 540.277 41.3128 540.43 41.0358C540.588 40.7546 540.666 40.4435 540.666 40.1026V39.4122C540.666 39.0713 540.592 38.7603 540.443 38.479C540.294 38.1935 540.006 38.0507 539.58 38.0507C539.179 38.0507 538.896 38.1935 538.73 38.479C538.563 38.7603 538.48 39.0713 538.48 39.4122ZM530.158 32.6111V31.9208C530.158 31.4094 530.267 30.9407 530.484 30.5145C530.701 30.0884 531.017 29.7475 531.43 29.4918C531.843 29.2318 532.344 29.1019 532.932 29.1019C533.533 29.1019 534.038 29.2318 534.447 29.4918C534.86 29.7475 535.171 30.0884 535.38 30.5145C535.589 30.9407 535.693 31.4094 535.693 31.9208V32.6111C535.693 33.1225 535.587 33.5912 535.374 34.0174C535.165 34.4392 534.854 34.778 534.441 35.0337C534.027 35.2894 533.524 35.4172 532.932 35.4172C532.331 35.4172 531.824 35.2894 531.411 35.0337C531.002 34.778 530.691 34.4371 530.478 34.011C530.264 33.5848 530.158 33.1182 530.158 32.6111ZM531.839 31.9208V32.6111C531.839 32.952 531.918 33.2631 532.076 33.5443C532.237 33.8213 532.523 33.9598 532.932 33.9598C533.341 33.9598 533.622 33.8213 533.776 33.5443C533.934 33.2631 534.012 32.952 534.012 32.6111V31.9208C534.012 31.5799 533.938 31.2688 533.789 30.9875C533.639 30.702 533.354 30.5593 532.932 30.5593C532.527 30.5593 532.244 30.702 532.082 30.9875C531.92 31.273 531.839 31.5841 531.839 31.9208ZM530.887 42.5571L539.887 29.4662H541.485L532.485 42.5571H530.887ZM549.155 36.0117C549.155 37.6054 548.942 39.0735 548.516 40.4158C548.094 41.7539 547.463 42.9918 546.624 44.1296H544.444C544.772 43.7077 545.075 43.1921 545.352 42.5827C545.633 41.9733 545.876 41.3043 546.081 40.5756C546.289 39.8469 546.451 39.0926 546.566 38.3128C546.686 37.533 546.745 36.7659 546.745 36.0117C546.745 35.0017 546.643 33.979 546.438 32.9435C546.238 31.908 545.963 30.947 545.614 30.0607C545.269 29.1743 544.879 28.4499 544.444 27.8874H546.624C547.463 29.0252 548.094 30.2652 548.516 31.6076C548.942 32.9456 549.155 34.4137 549.155 36.0117Z" fill="white"/>
<path d="M399.695 131.959V130.553H409.514V131.959H405.397V143.644H403.812V131.959H399.695ZM414.448 143.848C413.502 143.848 412.686 143.639 412 143.222C411.318 142.8 410.792 142.212 410.421 141.457C410.055 140.699 409.872 139.817 409.872 138.811C409.872 137.805 410.055 136.919 410.421 136.152C410.792 135.381 411.308 134.78 411.968 134.35C412.633 133.915 413.409 133.698 414.295 133.698C414.806 133.698 415.311 133.783 415.81 133.953C416.308 134.124 416.762 134.401 417.171 134.784C417.58 135.163 417.906 135.666 418.149 136.293C418.392 136.919 418.514 137.69 418.514 138.607V139.246H410.945V137.942H416.98C416.98 137.388 416.869 136.894 416.647 136.459C416.43 136.024 416.119 135.681 415.714 135.43C415.313 135.178 414.84 135.053 414.295 135.053C413.694 135.053 413.174 135.202 412.735 135.5C412.301 135.794 411.966 136.178 411.732 136.651C411.497 137.124 411.38 137.631 411.38 138.172V139.041C411.38 139.783 411.508 140.411 411.764 140.927C412.024 141.438 412.384 141.828 412.844 142.097C413.304 142.361 413.839 142.493 414.448 142.493C414.845 142.493 415.203 142.438 415.522 142.327C415.846 142.212 416.125 142.041 416.36 141.815C416.594 141.585 416.775 141.3 416.903 140.959L418.36 141.368C418.207 141.862 417.949 142.297 417.587 142.672C417.225 143.043 416.777 143.332 416.244 143.541C415.712 143.746 415.113 143.848 414.448 143.848ZM423.698 143.874C423.075 143.874 422.511 143.756 422.004 143.522C421.497 143.283 421.094 142.94 420.796 142.493C420.497 142.041 420.348 141.496 420.348 140.857C420.348 140.294 420.459 139.838 420.681 139.489C420.902 139.135 421.198 138.858 421.569 138.658C421.94 138.457 422.349 138.308 422.796 138.21C423.248 138.108 423.702 138.027 424.158 137.967C424.754 137.891 425.238 137.833 425.609 137.795C425.984 137.752 426.257 137.682 426.427 137.584C426.602 137.486 426.689 137.315 426.689 137.073V137.021C426.689 136.391 426.517 135.901 426.171 135.551C425.83 135.202 425.313 135.027 424.618 135.027C423.898 135.027 423.333 135.185 422.924 135.5C422.515 135.815 422.227 136.152 422.061 136.51L420.629 135.999C420.885 135.402 421.226 134.938 421.652 134.605C422.083 134.269 422.551 134.034 423.058 133.902C423.57 133.766 424.073 133.698 424.567 133.698C424.882 133.698 425.244 133.736 425.654 133.813C426.067 133.885 426.465 134.036 426.849 134.266C427.237 134.497 427.558 134.844 427.814 135.308C428.07 135.773 428.198 136.395 428.198 137.175V143.644H426.689V142.314H426.612C426.51 142.527 426.34 142.755 426.101 142.998C425.862 143.241 425.545 143.448 425.149 143.618C424.752 143.788 424.269 143.874 423.698 143.874ZM423.928 142.519C424.524 142.519 425.027 142.401 425.436 142.167C425.85 141.933 426.161 141.63 426.369 141.259C426.583 140.889 426.689 140.499 426.689 140.09V138.709C426.625 138.786 426.485 138.856 426.267 138.92C426.054 138.979 425.807 139.033 425.526 139.08C425.249 139.122 424.978 139.161 424.714 139.195C424.454 139.225 424.243 139.25 424.081 139.271C423.689 139.323 423.323 139.406 422.982 139.521C422.645 139.631 422.372 139.8 422.164 140.026C421.959 140.247 421.857 140.55 421.857 140.933C421.857 141.457 422.051 141.854 422.438 142.122C422.83 142.386 423.327 142.519 423.928 142.519ZM430.951 143.644V133.825H432.408V135.359H432.536C432.741 134.835 433.071 134.428 433.527 134.139C433.983 133.845 434.531 133.698 435.17 133.698C435.817 133.698 436.357 133.845 436.787 134.139C437.222 134.428 437.56 134.835 437.803 135.359H437.906C438.157 134.852 438.534 134.45 439.037 134.151C439.54 133.849 440.143 133.698 440.846 133.698C441.724 133.698 442.442 133.972 443 134.522C443.558 135.068 443.837 135.918 443.837 137.073V143.644H442.329V137.073C442.329 136.348 442.131 135.83 441.734 135.519C441.338 135.208 440.871 135.053 440.335 135.053C439.644 135.053 439.109 135.261 438.73 135.679C438.351 136.092 438.161 136.617 438.161 137.252V143.644H436.627V136.919C436.627 136.361 436.446 135.911 436.084 135.57C435.722 135.225 435.255 135.053 434.684 135.053C434.292 135.053 433.925 135.157 433.585 135.366C433.248 135.575 432.975 135.864 432.766 136.235C432.562 136.602 432.46 137.026 432.46 137.507V143.644H430.951Z" fill="white"/>
<path d="M404.987 154.931C405.614 154.935 406.223 155.046 406.816 155.263C407.412 155.476 407.949 155.826 408.426 156.311C408.904 156.793 409.283 157.439 409.564 158.248C409.845 159.058 409.986 160.059 409.986 161.253C409.99 162.378 409.871 163.383 409.628 164.27C409.389 165.152 409.046 165.897 408.599 166.507C408.151 167.116 407.612 167.581 406.982 167.9C406.351 168.22 405.642 168.38 404.853 168.38C404.026 168.38 403.294 168.218 402.654 167.894C402.019 167.57 401.506 167.127 401.114 166.564C400.722 166.002 400.481 165.358 400.392 164.634H402.725C402.844 165.154 403.087 165.567 403.453 165.874C403.824 166.177 404.291 166.328 404.853 166.328C405.761 166.328 406.46 165.934 406.95 165.145C407.44 164.357 407.685 163.262 407.685 161.86H407.595C407.387 162.235 407.116 162.559 406.784 162.831C406.451 163.1 406.074 163.307 405.652 163.451C405.235 163.596 404.791 163.669 404.323 163.669C403.556 163.669 402.865 163.485 402.252 163.119C401.642 162.753 401.159 162.25 400.801 161.61C400.447 160.971 400.268 160.24 400.264 159.418C400.264 158.566 400.46 157.801 400.852 157.123C401.248 156.441 401.8 155.905 402.507 155.512C403.215 155.116 404.041 154.922 404.987 154.931ZM404.994 156.848C404.534 156.848 404.118 156.961 403.747 157.187C403.381 157.409 403.091 157.711 402.878 158.095C402.669 158.474 402.565 158.898 402.565 159.367C402.569 159.831 402.673 160.253 402.878 160.633C403.087 161.012 403.37 161.312 403.728 161.534C404.09 161.755 404.504 161.866 404.968 161.866C405.313 161.866 405.635 161.8 405.933 161.668C406.232 161.536 406.492 161.353 406.713 161.118C406.939 160.88 407.114 160.609 407.237 160.307C407.365 160.004 407.427 159.684 407.423 159.348C407.423 158.9 407.316 158.487 407.103 158.108C406.894 157.728 406.607 157.424 406.24 157.194C405.878 156.963 405.463 156.848 404.994 156.848ZM416.953 168.45C415.901 168.45 414.997 168.184 414.243 167.651C413.493 167.114 412.916 166.341 412.511 165.331C412.11 164.316 411.91 163.096 411.91 161.668C411.914 160.24 412.117 159.026 412.517 158.025C412.922 157.019 413.499 156.252 414.249 155.723C415.004 155.195 415.905 154.931 416.953 154.931C418.002 154.931 418.903 155.195 419.657 155.723C420.411 156.252 420.989 157.019 421.389 158.025C421.794 159.03 421.997 160.245 421.997 161.668C421.997 163.1 421.794 164.323 421.389 165.337C420.989 166.347 420.411 167.118 419.657 167.651C418.907 168.184 418.006 168.45 416.953 168.45ZM416.953 166.449C417.771 166.449 418.417 166.047 418.89 165.241C419.367 164.432 419.606 163.24 419.606 161.668C419.606 160.628 419.497 159.755 419.28 159.047C419.063 158.34 418.756 157.807 418.36 157.449C417.963 157.087 417.494 156.906 416.953 156.906C416.139 156.906 415.496 157.311 415.023 158.12C414.55 158.926 414.311 160.108 414.307 161.668C414.303 162.712 414.407 163.59 414.62 164.302C414.838 165.013 415.144 165.55 415.541 165.912C415.937 166.27 416.408 166.449 416.953 166.449ZM428.959 168.45C427.907 168.45 427.003 168.184 426.249 167.651C425.499 167.114 424.922 166.341 424.517 165.331C424.116 164.316 423.916 163.096 423.916 161.668C423.92 160.24 424.123 159.026 424.523 158.025C424.928 157.019 425.505 156.252 426.255 155.723C427.01 155.195 427.911 154.931 428.959 154.931C430.007 154.931 430.909 155.195 431.663 155.723C432.417 156.252 432.995 157.019 433.395 158.025C433.8 159.03 434.002 160.245 434.002 161.668C434.002 163.1 433.8 164.323 433.395 165.337C432.995 166.347 432.417 167.118 431.663 167.651C430.913 168.184 430.012 168.45 428.959 168.45ZM428.959 166.449C429.777 166.449 430.423 166.047 430.896 165.241C431.373 164.432 431.612 163.24 431.612 161.668C431.612 160.628 431.503 159.755 431.286 159.047C431.069 158.34 430.762 157.807 430.365 157.449C429.969 157.087 429.5 156.906 428.959 156.906C428.145 156.906 427.502 157.311 427.029 158.12C426.556 158.926 426.317 160.108 426.313 161.668C426.309 162.712 426.413 163.59 426.626 164.302C426.843 165.013 427.15 165.55 427.547 165.912C427.943 166.27 428.414 166.449 428.959 166.449ZM438.359 166.411L438.276 167.114C438.216 167.651 438.109 168.196 437.956 168.75C437.807 169.309 437.649 169.822 437.483 170.291C437.317 170.76 437.183 171.128 437.08 171.397H435.521C435.58 171.137 435.661 170.783 435.763 170.336C435.87 169.888 435.972 169.385 436.07 168.827C436.168 168.269 436.234 167.702 436.268 167.127L436.313 166.411H438.359ZM445.254 168.45C444.202 168.45 443.298 168.184 442.544 167.651C441.794 167.114 441.216 166.341 440.812 165.331C440.411 164.316 440.211 163.096 440.211 161.668C440.215 160.24 440.417 159.026 440.818 158.025C441.223 157.019 441.8 156.252 442.55 155.723C443.305 155.195 444.206 154.931 445.254 154.931C446.302 154.931 447.204 155.195 447.958 155.723C448.712 156.252 449.29 157.019 449.69 158.025C450.095 159.03 450.297 160.245 450.297 161.668C450.297 163.1 450.095 164.323 449.69 165.337C449.29 166.347 448.712 167.118 447.958 167.651C447.208 168.184 446.307 168.45 445.254 168.45ZM445.254 166.449C446.072 166.449 446.718 166.047 447.191 165.241C447.668 164.432 447.907 163.24 447.907 161.668C447.907 160.628 447.798 159.755 447.581 159.047C447.363 158.34 447.057 157.807 446.66 157.449C446.264 157.087 445.795 156.906 445.254 156.906C444.44 156.906 443.797 157.311 443.324 158.12C442.851 158.926 442.612 160.108 442.608 161.668C442.604 162.712 442.708 163.59 442.921 164.302C443.138 165.013 443.445 165.55 443.841 165.912C444.238 166.27 444.709 166.449 445.254 166.449ZM457.26 168.45C456.207 168.45 455.304 168.184 454.55 167.651C453.8 167.114 453.222 166.341 452.817 165.331C452.417 164.316 452.217 163.096 452.217 161.668C452.221 160.24 452.423 159.026 452.824 158.025C453.229 157.019 453.806 156.252 454.556 155.723C455.31 155.195 456.212 154.931 457.26 154.931C458.308 154.931 459.21 155.195 459.964 155.723C460.718 156.252 461.295 157.019 461.696 158.025C462.101 159.03 462.303 160.245 462.303 161.668C462.303 163.1 462.101 164.323 461.696 165.337C461.295 166.347 460.718 167.118 459.964 167.651C459.214 168.184 458.313 168.45 457.26 168.45ZM457.26 166.449C458.078 166.449 458.724 166.047 459.197 165.241C459.674 164.432 459.913 163.24 459.913 161.668C459.913 160.628 459.804 159.755 459.587 159.047C459.369 158.34 459.063 157.807 458.666 157.449C458.27 157.087 457.801 156.906 457.26 156.906C456.446 156.906 455.803 157.311 455.33 158.12C454.857 158.926 454.618 160.108 454.614 161.668C454.609 162.712 454.714 163.59 454.927 164.302C455.144 165.013 455.451 165.55 455.847 165.912C456.244 166.27 456.714 166.449 457.26 166.449ZM469.266 168.45C468.213 168.45 467.31 168.184 466.556 167.651C465.806 167.114 465.228 166.341 464.823 165.331C464.423 164.316 464.222 163.096 464.222 161.668C464.227 160.24 464.429 159.026 464.83 158.025C465.235 157.019 465.812 156.252 466.562 155.723C467.316 155.195 468.218 154.931 469.266 154.931C470.314 154.931 471.215 155.195 471.97 155.723C472.724 156.252 473.301 157.019 473.702 158.025C474.107 159.03 474.309 160.245 474.309 161.668C474.309 163.1 474.107 164.323 473.702 165.337C473.301 166.347 472.724 167.118 471.97 167.651C471.22 168.184 470.318 168.45 469.266 168.45ZM469.266 166.449C470.084 166.449 470.73 166.047 471.203 165.241C471.68 164.432 471.919 163.24 471.919 161.668C471.919 160.628 471.81 159.755 471.593 159.047C471.375 158.34 471.068 157.807 470.672 157.449C470.276 157.087 469.807 156.906 469.266 156.906C468.452 156.906 467.808 157.311 467.335 158.12C466.862 158.926 466.624 160.108 466.619 161.668C466.615 162.712 466.72 163.59 466.933 164.302C467.15 165.013 467.457 165.55 467.853 165.912C468.249 166.27 468.72 166.449 469.266 166.449ZM481.499 161.655C481.499 160.057 481.71 158.589 482.131 157.251C482.558 155.909 483.19 154.669 484.03 153.531H486.21C485.886 153.953 485.583 154.471 485.302 155.084C485.021 155.694 484.776 156.363 484.567 157.091C484.362 157.816 484.2 158.568 484.081 159.348C483.966 160.128 483.908 160.897 483.908 161.655C483.908 162.665 484.009 163.688 484.209 164.723C484.413 165.759 484.688 166.72 485.033 167.606C485.383 168.488 485.775 169.211 486.21 169.773H484.03C483.19 168.635 482.558 167.397 482.131 166.059C481.71 164.717 481.499 163.249 481.499 161.655ZM492.526 154.931C493.153 154.935 493.762 155.046 494.355 155.263C494.951 155.476 495.488 155.826 495.965 156.311C496.443 156.793 496.822 157.439 497.103 158.248C497.384 159.058 497.525 160.059 497.525 161.253C497.529 162.378 497.41 163.383 497.167 164.27C496.928 165.152 496.585 165.897 496.138 166.507C495.691 167.116 495.151 167.581 494.521 167.9C493.89 168.22 493.181 168.38 492.392 168.38C491.566 168.38 490.833 168.218 490.193 167.894C489.558 167.57 489.045 167.127 488.653 166.564C488.261 166.002 488.02 165.358 487.931 164.634H490.264C490.383 165.154 490.626 165.567 490.992 165.874C491.363 166.177 491.83 166.328 492.392 166.328C493.3 166.328 493.999 165.934 494.489 165.145C494.979 164.357 495.224 163.262 495.224 161.86H495.134C494.926 162.235 494.655 162.559 494.323 162.831C493.99 163.1 493.613 163.307 493.191 163.451C492.774 163.596 492.33 163.669 491.862 163.669C491.095 163.669 490.404 163.485 489.791 163.119C489.181 162.753 488.698 162.25 488.34 161.61C487.986 160.971 487.807 160.24 487.803 159.418C487.803 158.566 487.999 157.801 488.391 157.123C488.787 156.441 489.339 155.905 490.046 155.512C490.754 155.116 491.58 154.922 492.526 154.931ZM492.533 156.848C492.073 156.848 491.657 156.961 491.286 157.187C490.92 157.409 490.63 157.711 490.417 158.095C490.208 158.474 490.104 158.898 490.104 159.367C490.108 159.831 490.213 160.253 490.417 160.633C490.626 161.012 490.909 161.312 491.267 161.534C491.629 161.755 492.043 161.866 492.507 161.866C492.852 161.866 493.174 161.8 493.472 161.668C493.771 161.536 494.031 161.353 494.252 161.118C494.478 160.88 494.653 160.609 494.776 160.307C494.904 160.004 494.966 159.684 494.962 159.348C494.962 158.9 494.855 158.487 494.642 158.108C494.433 157.728 494.146 157.424 493.779 157.194C493.417 156.963 493.002 156.848 492.533 156.848ZM506.653 165.746V165.056C506.653 164.549 506.759 164.082 506.972 163.656C507.19 163.23 507.505 162.887 507.919 162.627C508.332 162.367 508.833 162.237 509.421 162.237C510.026 162.237 510.533 162.367 510.942 162.627C511.351 162.883 511.66 163.223 511.869 163.65C512.082 164.076 512.188 164.544 512.188 165.056V165.746C512.188 166.253 512.082 166.72 511.869 167.146C511.656 167.572 511.343 167.915 510.929 168.175C510.52 168.435 510.017 168.565 509.421 168.565C508.824 168.565 508.319 168.435 507.906 168.175C507.492 167.915 507.179 167.572 506.966 167.146C506.757 166.72 506.653 166.253 506.653 165.746ZM508.321 165.056V165.746C508.321 166.083 508.402 166.392 508.564 166.673C508.726 166.954 509.012 167.095 509.421 167.095C509.834 167.095 510.117 166.956 510.271 166.679C510.428 166.398 510.507 166.087 510.507 165.746V165.056C510.507 164.715 510.433 164.404 510.284 164.123C510.134 163.837 509.847 163.694 509.421 163.694C509.02 163.694 508.737 163.837 508.57 164.123C508.404 164.404 508.321 164.715 508.321 165.056ZM499.999 158.255V157.564C499.999 157.053 500.107 156.584 500.325 156.158C500.542 155.732 500.857 155.391 501.271 155.135C501.684 154.875 502.185 154.745 502.773 154.745C503.374 154.745 503.879 154.875 504.288 155.135C504.701 155.391 505.012 155.732 505.221 156.158C505.43 156.584 505.534 157.053 505.534 157.564V158.255C505.534 158.766 505.428 159.235 505.215 159.661C505.006 160.083 504.695 160.422 504.281 160.677C503.868 160.933 503.365 161.061 502.773 161.061C502.172 161.061 501.665 160.933 501.252 160.677C500.843 160.422 500.531 160.081 500.318 159.655C500.105 159.228 499.999 158.762 499.999 158.255ZM501.68 157.564V158.255C501.68 158.596 501.759 158.907 501.916 159.188C502.078 159.465 502.364 159.603 502.773 159.603C503.182 159.603 503.463 159.465 503.617 159.188C503.774 158.907 503.853 158.596 503.853 158.255V157.564C503.853 157.223 503.779 156.912 503.629 156.631C503.48 156.346 503.195 156.203 502.773 156.203C502.368 156.203 502.085 156.346 501.923 156.631C501.761 156.917 501.68 157.228 501.68 157.564ZM500.727 168.201L509.727 155.11H511.325L502.325 168.201H500.727ZM518.996 161.655C518.996 163.249 518.783 164.717 518.357 166.059C517.935 167.397 517.304 168.635 516.465 169.773H514.285C514.613 169.351 514.916 168.836 515.193 168.226C515.474 167.617 515.717 166.948 515.921 166.219C516.13 165.49 516.292 164.736 516.407 163.956C516.526 163.177 516.586 162.409 516.586 161.655C516.586 160.645 516.484 159.623 516.279 158.587C516.079 157.552 515.804 156.591 515.455 155.704C515.11 154.818 514.72 154.093 514.285 153.531H516.465C517.304 154.669 517.935 155.909 518.357 157.251C518.783 158.589 518.996 160.057 518.996 161.655Z" fill="white"/>
<path d="M398.156 237.315V235.909H407.975V237.315H403.858V249H402.273V237.315H398.156ZM409.197 249V239.182H410.654V240.665H410.757C410.936 240.179 411.26 239.785 411.728 239.482C412.197 239.18 412.725 239.028 413.314 239.028C413.424 239.028 413.563 239.031 413.729 239.035C413.895 239.039 414.021 239.045 414.106 239.054V240.588C414.055 240.575 413.938 240.556 413.755 240.531C413.576 240.501 413.386 240.486 413.186 240.486C412.708 240.486 412.282 240.586 411.907 240.786C411.537 240.982 411.243 241.255 411.025 241.604C410.812 241.95 410.706 242.344 410.706 242.787V249H409.197ZM419.712 249.205C418.766 249.205 417.95 248.996 417.264 248.578C416.582 248.156 416.056 247.568 415.685 246.814C415.319 246.055 415.135 245.173 415.135 244.168C415.135 243.162 415.319 242.276 415.685 241.509C416.056 240.737 416.571 240.136 417.232 239.706C417.897 239.271 418.672 239.054 419.559 239.054C420.07 239.054 420.575 239.139 421.074 239.31C421.572 239.48 422.026 239.757 422.435 240.141C422.844 240.52 423.17 241.023 423.413 241.649C423.656 242.276 423.777 243.047 423.777 243.963V244.602H416.209V243.298H422.243C422.243 242.744 422.132 242.25 421.911 241.815C421.694 241.381 421.382 241.038 420.978 240.786C420.577 240.535 420.104 240.409 419.559 240.409C418.958 240.409 418.438 240.558 417.999 240.857C417.564 241.151 417.23 241.534 416.995 242.007C416.761 242.48 416.644 242.987 416.644 243.528V244.398C416.644 245.139 416.772 245.768 417.027 246.283C417.287 246.795 417.647 247.185 418.108 247.453C418.568 247.717 419.103 247.849 419.712 247.849C420.108 247.849 420.466 247.794 420.786 247.683C421.11 247.568 421.389 247.398 421.623 247.172C421.858 246.942 422.039 246.656 422.167 246.315L423.624 246.724C423.471 247.219 423.213 247.653 422.85 248.028C422.488 248.399 422.041 248.689 421.508 248.898C420.975 249.102 420.377 249.205 419.712 249.205ZM428.961 249.23C428.339 249.23 427.775 249.113 427.267 248.879C426.76 248.64 426.358 248.297 426.059 247.849C425.761 247.398 425.612 246.852 425.612 246.213C425.612 245.651 425.723 245.195 425.944 244.845C426.166 244.491 426.462 244.214 426.833 244.014C427.203 243.814 427.613 243.665 428.06 243.567C428.512 243.464 428.966 243.384 429.422 243.324C430.018 243.247 430.502 243.19 430.873 243.151C431.248 243.109 431.52 243.038 431.691 242.94C431.865 242.842 431.953 242.672 431.953 242.429V242.378C431.953 241.747 431.78 241.257 431.435 240.908C431.094 240.558 430.576 240.384 429.882 240.384C429.162 240.384 428.597 240.541 428.188 240.857C427.779 241.172 427.491 241.509 427.325 241.866L425.893 241.355C426.149 240.759 426.49 240.294 426.916 239.962C427.346 239.625 427.815 239.391 428.322 239.259C428.833 239.122 429.336 239.054 429.831 239.054C430.146 239.054 430.508 239.092 430.917 239.169C431.331 239.241 431.729 239.393 432.113 239.623C432.5 239.853 432.822 240.2 433.078 240.665C433.333 241.129 433.461 241.751 433.461 242.531V249H431.953V247.67H431.876C431.774 247.884 431.603 248.112 431.365 248.354C431.126 248.597 430.809 248.804 430.412 248.974C430.016 249.145 429.532 249.23 428.961 249.23ZM429.191 247.875C429.788 247.875 430.291 247.758 430.7 247.523C431.113 247.289 431.424 246.987 431.633 246.616C431.846 246.245 431.953 245.855 431.953 245.446V244.065C431.889 244.142 431.748 244.212 431.531 244.276C431.318 244.336 431.071 244.389 430.789 244.436C430.512 244.479 430.242 244.517 429.978 244.551C429.718 244.581 429.507 244.607 429.345 244.628C428.953 244.679 428.586 244.762 428.245 244.877C427.909 244.988 427.636 245.156 427.427 245.382C427.223 245.604 427.12 245.906 427.12 246.29C427.12 246.814 427.314 247.21 427.702 247.479C428.094 247.743 428.591 247.875 429.191 247.875ZM443.169 241.381L441.814 241.764C441.729 241.538 441.603 241.319 441.437 241.106C441.275 240.888 441.053 240.71 440.772 240.569C440.491 240.428 440.131 240.358 439.692 240.358C439.091 240.358 438.59 240.496 438.19 240.773C437.794 241.046 437.595 241.393 437.595 241.815C437.595 242.19 437.732 242.487 438.004 242.704C438.277 242.921 438.703 243.102 439.283 243.247L440.74 243.605C441.618 243.818 442.272 244.144 442.703 244.583C443.133 245.018 443.348 245.578 443.348 246.264C443.348 246.827 443.186 247.33 442.862 247.773C442.543 248.216 442.095 248.565 441.52 248.821C440.945 249.077 440.276 249.205 439.513 249.205C438.512 249.205 437.683 248.987 437.026 248.553C436.37 248.118 435.955 247.483 435.78 246.648L437.212 246.29C437.348 246.818 437.606 247.214 437.985 247.479C438.369 247.743 438.869 247.875 439.487 247.875C440.191 247.875 440.749 247.726 441.162 247.428C441.58 247.125 441.789 246.763 441.789 246.341C441.789 246 441.669 245.714 441.431 245.484C441.192 245.25 440.825 245.075 440.331 244.96L438.695 244.577C437.796 244.364 437.135 244.033 436.713 243.586C436.296 243.134 436.087 242.57 436.087 241.892C436.087 241.338 436.242 240.848 436.553 240.422C436.869 239.996 437.297 239.661 437.838 239.418C438.384 239.175 439.002 239.054 439.692 239.054C440.664 239.054 441.426 239.267 441.98 239.693C442.539 240.119 442.935 240.682 443.169 241.381ZM451.806 244.986V239.182H453.315V249H451.806V247.338H451.704C451.474 247.837 451.116 248.261 450.63 248.61C450.145 248.955 449.531 249.128 448.789 249.128C448.176 249.128 447.63 248.994 447.153 248.725C446.676 248.452 446.301 248.043 446.028 247.498C445.755 246.948 445.619 246.256 445.619 245.42V239.182H447.127V245.318C447.127 246.034 447.328 246.605 447.728 247.031C448.133 247.457 448.649 247.67 449.275 247.67C449.65 247.67 450.032 247.575 450.419 247.383C450.811 247.191 451.14 246.897 451.404 246.501C451.672 246.104 451.806 245.599 451.806 244.986ZM456.078 249V239.182H457.535V240.665H457.638C457.817 240.179 458.14 239.785 458.609 239.482C459.078 239.18 459.606 239.028 460.194 239.028C460.305 239.028 460.444 239.031 460.61 239.035C460.776 239.039 460.902 239.045 460.987 239.054V240.588C460.936 240.575 460.819 240.556 460.635 240.531C460.456 240.501 460.267 240.486 460.067 240.486C459.589 240.486 459.163 240.586 458.788 240.786C458.417 240.982 458.123 241.255 457.906 241.604C457.693 241.95 457.586 242.344 457.586 242.787V249H456.078ZM464.046 252.682C463.79 252.682 463.562 252.661 463.362 252.618C463.161 252.58 463.023 252.541 462.946 252.503L463.33 251.173C463.696 251.267 464.02 251.301 464.301 251.276C464.583 251.25 464.832 251.124 465.049 250.898C465.271 250.677 465.473 250.317 465.656 249.818L465.938 249.051L462.307 239.182H463.943L466.654 247.006H466.756L469.466 239.182H471.102L466.935 250.432C466.747 250.939 466.515 251.359 466.238 251.691C465.961 252.028 465.639 252.277 465.273 252.439C464.911 252.601 464.502 252.682 464.046 252.682Z" fill="white"/>
<path d="M407.716 276.179C407.09 276.175 406.478 276.066 405.882 275.853C405.285 275.636 404.748 275.284 404.271 274.798C403.794 274.308 403.414 273.658 403.133 272.849C402.852 272.035 402.713 271.027 402.718 269.825C402.718 268.705 402.837 267.705 403.076 266.827C403.314 265.95 403.657 265.208 404.105 264.603C404.552 263.994 405.091 263.529 405.722 263.21C406.357 262.89 407.066 262.73 407.85 262.73C408.673 262.73 409.402 262.892 410.036 263.216C410.676 263.54 411.191 263.983 411.583 264.545C411.975 265.104 412.218 265.734 412.312 266.438H409.979C409.86 265.935 409.615 265.534 409.244 265.236C408.877 264.933 408.413 264.782 407.85 264.782C406.943 264.782 406.244 265.176 405.754 265.964C405.268 266.753 405.023 267.835 405.019 269.212H405.108C405.317 268.837 405.588 268.515 405.92 268.246C406.252 267.978 406.627 267.771 407.045 267.626C407.467 267.477 407.912 267.403 408.381 267.403C409.148 267.403 409.836 267.586 410.446 267.952C411.059 268.319 411.545 268.824 411.903 269.467C412.261 270.107 412.438 270.839 412.434 271.666C412.438 272.527 412.242 273.3 411.845 273.987C411.449 274.668 410.897 275.205 410.19 275.597C409.483 275.989 408.658 276.183 407.716 276.179ZM407.703 274.261C408.168 274.261 408.583 274.148 408.95 273.923C409.316 273.697 409.606 273.392 409.819 273.009C410.032 272.625 410.137 272.195 410.132 271.717C410.137 271.249 410.034 270.825 409.826 270.445C409.621 270.066 409.338 269.766 408.975 269.544C408.613 269.322 408.2 269.212 407.735 269.212C407.39 269.212 407.068 269.278 406.77 269.41C406.472 269.542 406.212 269.725 405.99 269.96C405.769 270.19 405.594 270.458 405.466 270.765C405.343 271.067 405.279 271.391 405.274 271.737C405.279 272.192 405.385 272.612 405.594 272.996C405.803 273.379 406.09 273.686 406.457 273.916C406.823 274.146 407.239 274.261 407.703 274.261ZM419.433 276.249C418.38 276.249 417.477 275.983 416.723 275.45C415.973 274.913 415.395 274.14 414.99 273.13C414.59 272.116 414.389 270.895 414.389 269.467C414.394 268.04 414.596 266.825 414.997 265.824C415.402 264.818 415.979 264.051 416.729 263.523C417.483 262.994 418.384 262.73 419.433 262.73C420.481 262.73 421.382 262.994 422.137 263.523C422.891 264.051 423.468 264.818 423.869 265.824C424.274 266.83 424.476 268.044 424.476 269.467C424.476 270.899 424.274 272.122 423.869 273.136C423.468 274.146 422.891 274.918 422.137 275.45C421.387 275.983 420.485 276.249 419.433 276.249ZM419.433 274.249C420.251 274.249 420.897 273.846 421.37 273.04C421.847 272.231 422.085 271.04 422.085 269.467C422.085 268.428 421.977 267.554 421.759 266.847C421.542 266.139 421.235 265.607 420.839 265.249C420.443 264.886 419.974 264.705 419.433 264.705C418.619 264.705 417.975 265.11 417.502 265.92C417.029 266.725 416.791 267.908 416.786 269.467C416.782 270.511 416.887 271.389 417.1 272.101C417.317 272.812 417.624 273.349 418.02 273.712C418.416 274.07 418.887 274.249 419.433 274.249ZM431.439 276.249C430.386 276.249 429.483 275.983 428.728 275.45C427.978 274.913 427.401 274.14 426.996 273.13C426.596 272.116 426.395 270.895 426.395 269.467C426.4 268.04 426.602 266.825 427.003 265.824C427.407 264.818 427.985 264.051 428.735 263.523C429.489 262.994 430.39 262.73 431.439 262.73C432.487 262.73 433.388 262.994 434.142 263.523C434.897 264.051 435.474 264.818 435.875 265.824C436.28 266.83 436.482 268.044 436.482 269.467C436.482 270.899 436.28 272.122 435.875 273.136C435.474 274.146 434.897 274.918 434.142 275.45C433.392 275.983 432.491 276.249 431.439 276.249ZM431.439 274.249C432.257 274.249 432.902 273.846 433.375 273.04C433.853 272.231 434.091 271.04 434.091 269.467C434.091 268.428 433.983 267.554 433.765 266.847C433.548 266.139 433.241 265.607 432.845 265.249C432.449 264.886 431.98 264.705 431.439 264.705C430.625 264.705 429.981 265.11 429.508 265.92C429.035 266.725 428.797 267.908 428.792 269.467C428.788 270.511 428.892 271.389 429.106 272.101C429.323 272.812 429.63 273.349 430.026 273.712C430.422 274.07 430.893 274.249 431.439 274.249ZM440.838 274.21L440.755 274.913C440.695 275.45 440.589 275.996 440.435 276.55C440.286 277.108 440.129 277.621 439.962 278.09C439.796 278.559 439.662 278.928 439.56 279.196H438C438.06 278.936 438.141 278.582 438.243 278.135C438.35 277.688 438.452 277.185 438.55 276.626C438.648 276.068 438.714 275.501 438.748 274.926L438.793 274.21H440.838ZM447.734 276.249C446.681 276.249 445.778 275.983 445.023 275.45C444.273 274.913 443.696 274.14 443.291 273.13C442.891 272.116 442.69 270.895 442.69 269.467C442.695 268.04 442.897 266.825 443.297 265.824C443.702 264.818 444.28 264.051 445.03 263.523C445.784 262.994 446.685 262.73 447.734 262.73C448.782 262.73 449.683 262.994 450.437 263.523C451.192 264.051 451.769 264.818 452.17 265.824C452.574 266.83 452.777 268.044 452.777 269.467C452.777 270.899 452.574 272.122 452.17 273.136C451.769 274.146 451.192 274.918 450.437 275.45C449.687 275.983 448.786 276.249 447.734 276.249ZM447.734 274.249C448.552 274.249 449.197 273.846 449.67 273.04C450.148 272.231 450.386 271.04 450.386 269.467C450.386 268.428 450.278 267.554 450.06 266.847C449.843 266.139 449.536 265.607 449.14 265.249C448.744 264.886 448.275 264.705 447.734 264.705C446.92 264.705 446.276 265.11 445.803 265.92C445.33 266.725 445.092 267.908 445.087 269.467C445.083 270.511 445.187 271.389 445.4 272.101C445.618 272.812 445.925 273.349 446.321 273.712C446.717 274.07 447.188 274.249 447.734 274.249ZM459.739 276.249C458.687 276.249 457.783 275.983 457.029 275.45C456.279 274.913 455.702 274.14 455.297 273.13C454.896 272.116 454.696 270.895 454.696 269.467C454.7 268.04 454.903 266.825 455.303 265.824C455.708 264.818 456.286 264.051 457.036 263.523C457.79 262.994 458.691 262.73 459.739 262.73C460.788 262.73 461.689 262.994 462.443 263.523C463.198 264.051 463.775 264.818 464.176 265.824C464.58 266.83 464.783 268.044 464.783 269.467C464.783 270.899 464.58 272.122 464.176 273.136C463.775 274.146 463.198 274.918 462.443 275.45C461.693 275.983 460.792 276.249 459.739 276.249ZM459.739 274.249C460.558 274.249 461.203 273.846 461.676 273.04C462.153 272.231 462.392 271.04 462.392 269.467C462.392 268.428 462.283 267.554 462.066 266.847C461.849 266.139 461.542 265.607 461.146 265.249C460.749 264.886 460.281 264.705 459.739 264.705C458.926 264.705 458.282 265.11 457.809 265.92C457.336 266.725 457.097 267.908 457.093 269.467C457.089 270.511 457.193 271.389 457.406 272.101C457.624 272.812 457.93 273.349 458.327 273.712C458.723 274.07 459.194 274.249 459.739 274.249ZM471.745 276.249C470.693 276.249 469.789 275.983 469.035 275.45C468.285 274.913 467.708 274.14 467.303 273.13C466.902 272.116 466.702 270.895 466.702 269.467C466.706 268.04 466.909 266.825 467.309 265.824C467.714 264.818 468.291 264.051 469.041 263.523C469.796 262.994 470.697 262.73 471.745 262.73C472.794 262.73 473.695 262.994 474.449 263.523C475.203 264.051 475.781 264.818 476.181 265.824C476.586 266.83 476.789 268.044 476.789 269.467C476.789 270.899 476.586 272.122 476.181 273.136C475.781 274.146 475.203 274.918 474.449 275.45C473.699 275.983 472.798 276.249 471.745 276.249ZM471.745 274.249C472.563 274.249 473.209 273.846 473.682 273.04C474.159 272.231 474.398 271.04 474.398 269.467C474.398 268.428 474.289 267.554 474.072 266.847C473.855 266.139 473.548 265.607 473.152 265.249C472.755 264.886 472.286 264.705 471.745 264.705C470.931 264.705 470.288 265.11 469.815 265.92C469.342 266.725 469.103 267.908 469.099 269.467C469.095 270.511 469.199 271.389 469.412 272.101C469.63 272.812 469.936 273.349 470.333 273.712C470.729 274.07 471.2 274.249 471.745 274.249ZM483.978 269.455C483.978 267.857 484.189 266.388 484.611 265.05C485.037 263.708 485.67 262.468 486.509 261.33H488.689C488.365 261.752 488.063 262.27 487.781 262.884C487.5 263.493 487.255 264.162 487.046 264.891C486.842 265.615 486.68 266.367 486.56 267.147C486.445 267.927 486.388 268.696 486.388 269.455C486.388 270.464 486.488 271.487 486.688 272.523C486.893 273.558 487.168 274.519 487.513 275.406C487.862 276.288 488.254 277.01 488.689 277.572H486.509C485.67 276.435 485.037 275.197 484.611 273.859C484.189 272.516 483.978 271.048 483.978 269.455ZM495.255 276.179C494.629 276.175 494.017 276.066 493.421 275.853C492.824 275.636 492.287 275.284 491.81 274.798C491.333 274.308 490.953 273.658 490.672 272.849C490.391 272.035 490.252 271.027 490.257 269.825C490.257 268.705 490.376 267.705 490.615 266.827C490.853 265.95 491.196 265.208 491.644 264.603C492.091 263.994 492.63 263.529 493.261 263.21C493.896 262.89 494.605 262.73 495.389 262.73C496.212 262.73 496.941 262.892 497.576 263.216C498.215 263.54 498.73 263.983 499.122 264.545C499.514 265.104 499.757 265.734 499.851 266.438H497.518C497.399 265.935 497.154 265.534 496.783 265.236C496.416 264.933 495.952 264.782 495.389 264.782C494.482 264.782 493.783 265.176 493.293 265.964C492.807 266.753 492.562 267.835 492.558 269.212H492.647C492.856 268.837 493.127 268.515 493.459 268.246C493.791 267.978 494.166 267.771 494.584 267.626C495.006 267.477 495.451 267.403 495.92 267.403C496.687 267.403 497.375 267.586 497.985 267.952C498.598 268.319 499.084 268.824 499.442 269.467C499.8 270.107 499.977 270.839 499.973 271.666C499.977 272.527 499.781 273.3 499.384 273.987C498.988 274.668 498.436 275.205 497.729 275.597C497.022 275.989 496.197 276.183 495.255 276.179ZM495.242 274.261C495.707 274.261 496.122 274.148 496.489 273.923C496.855 273.697 497.145 273.392 497.358 273.009C497.571 272.625 497.676 272.195 497.671 271.717C497.676 271.249 497.573 270.825 497.365 270.445C497.16 270.066 496.877 269.766 496.514 269.544C496.152 269.322 495.739 269.212 495.274 269.212C494.929 269.212 494.608 269.278 494.309 269.41C494.011 269.542 493.751 269.725 493.529 269.96C493.308 270.19 493.133 270.458 493.005 270.765C492.882 271.067 492.818 271.391 492.813 271.737C492.818 272.192 492.924 272.612 493.133 272.996C493.342 273.379 493.63 273.686 493.996 273.916C494.362 274.146 494.778 274.261 495.242 274.261ZM509.132 273.545V272.855C509.132 272.348 509.239 271.881 509.452 271.455C509.669 271.029 509.985 270.686 510.398 270.426C510.811 270.166 511.312 270.036 511.9 270.036C512.505 270.036 513.012 270.166 513.421 270.426C513.831 270.682 514.139 271.023 514.348 271.449C514.561 271.875 514.668 272.344 514.668 272.855V273.545C514.668 274.053 514.561 274.519 514.348 274.945C514.135 275.371 513.822 275.714 513.409 275.974C513 276.234 512.497 276.364 511.9 276.364C511.304 276.364 510.799 276.234 510.385 275.974C509.972 275.714 509.659 275.371 509.446 274.945C509.237 274.519 509.132 274.053 509.132 273.545ZM510.801 272.855V273.545C510.801 273.882 510.882 274.191 511.044 274.472C511.206 274.754 511.491 274.894 511.9 274.894C512.313 274.894 512.597 274.756 512.75 274.479C512.908 274.197 512.987 273.886 512.987 273.545V272.855C512.987 272.514 512.912 272.203 512.763 271.922C512.614 271.636 512.326 271.494 511.9 271.494C511.5 271.494 511.216 271.636 511.05 271.922C510.884 272.203 510.801 272.514 510.801 272.855ZM502.478 266.054V265.364C502.478 264.852 502.587 264.384 502.804 263.957C503.022 263.531 503.337 263.19 503.75 262.935C504.164 262.675 504.664 262.545 505.252 262.545C505.853 262.545 506.358 262.675 506.767 262.935C507.181 263.19 507.492 263.531 507.701 263.957C507.909 264.384 508.014 264.852 508.014 265.364V266.054C508.014 266.565 507.907 267.034 507.694 267.46C507.485 267.882 507.174 268.221 506.761 268.477C506.348 268.732 505.845 268.86 505.252 268.86C504.652 268.86 504.144 268.732 503.731 268.477C503.322 268.221 503.011 267.88 502.798 267.454C502.585 267.028 502.478 266.561 502.478 266.054ZM504.159 265.364V266.054C504.159 266.395 504.238 266.706 504.396 266.987C504.558 267.264 504.843 267.403 505.252 267.403C505.661 267.403 505.943 267.264 506.096 266.987C506.254 266.706 506.333 266.395 506.333 266.054V265.364C506.333 265.023 506.258 264.712 506.109 264.43C505.96 264.145 505.674 264.002 505.252 264.002C504.848 264.002 504.564 264.145 504.402 264.43C504.24 264.716 504.159 265.027 504.159 265.364ZM503.207 276L512.207 262.909H513.805L504.805 276H503.207ZM521.475 269.455C521.475 271.048 521.262 272.516 520.836 273.859C520.414 275.197 519.784 276.435 518.944 277.572H516.764C517.093 277.151 517.395 276.635 517.672 276.026C517.953 275.416 518.196 274.747 518.401 274.018C518.61 273.29 518.772 272.536 518.887 271.756C519.006 270.976 519.066 270.209 519.066 269.455C519.066 268.445 518.963 267.422 518.759 266.386C518.559 265.351 518.284 264.39 517.934 263.504C517.589 262.617 517.199 261.893 516.764 261.33H518.944C519.784 262.468 520.414 263.708 520.836 265.05C521.262 266.388 521.475 267.857 521.475 269.455Z" fill="white"/>
<path d="M412.884 353.909H414.469V362.577C414.469 363.472 414.258 364.271 413.837 364.974C413.419 365.673 412.829 366.224 412.066 366.629C411.303 367.03 410.408 367.23 409.381 367.23C408.354 367.23 407.459 367.03 406.697 366.629C405.934 366.224 405.342 365.673 404.92 364.974C404.502 364.271 404.293 363.472 404.293 362.577V353.909H405.878V362.449C405.878 363.088 406.019 363.657 406.3 364.156C406.582 364.65 406.982 365.04 407.502 365.325C408.026 365.607 408.653 365.747 409.381 365.747C410.11 365.747 410.736 365.607 411.261 365.325C411.785 365.04 412.185 364.65 412.462 364.156C412.744 363.657 412.884 363.088 412.884 362.449V353.909ZM418.939 361.094V367H417.43V357.182H418.888V358.716H419.016C419.246 358.217 419.595 357.817 420.064 357.514C420.533 357.207 421.138 357.054 421.879 357.054C422.544 357.054 423.126 357.19 423.624 357.463C424.123 357.732 424.511 358.141 424.788 358.69C425.065 359.236 425.203 359.926 425.203 360.761V367H423.695V360.864C423.695 360.092 423.494 359.491 423.094 359.061C422.693 358.626 422.144 358.409 421.445 358.409C420.963 358.409 420.533 358.513 420.153 358.722C419.778 358.931 419.482 359.236 419.265 359.636C419.048 360.037 418.939 360.523 418.939 361.094ZM430.849 367.23C430.227 367.23 429.662 367.113 429.155 366.879C428.648 366.64 428.245 366.297 427.947 365.849C427.649 365.398 427.5 364.852 427.5 364.213C427.5 363.651 427.61 363.195 427.832 362.845C428.054 362.491 428.35 362.214 428.72 362.014C429.091 361.814 429.5 361.665 429.948 361.567C430.399 361.464 430.853 361.384 431.309 361.324C431.906 361.247 432.389 361.19 432.76 361.151C433.135 361.109 433.408 361.038 433.578 360.94C433.753 360.842 433.84 360.672 433.84 360.429V360.378C433.84 359.747 433.668 359.257 433.323 358.908C432.982 358.558 432.464 358.384 431.769 358.384C431.049 358.384 430.485 358.541 430.076 358.857C429.666 359.172 429.379 359.509 429.213 359.866L427.781 359.355C428.036 358.759 428.377 358.294 428.804 357.962C429.234 357.625 429.703 357.391 430.21 357.259C430.721 357.122 431.224 357.054 431.718 357.054C432.034 357.054 432.396 357.092 432.805 357.169C433.218 357.241 433.617 357.393 434 357.623C434.388 357.853 434.71 358.2 434.965 358.665C435.221 359.129 435.349 359.751 435.349 360.531V367H433.84V365.67H433.764C433.661 365.884 433.491 366.112 433.252 366.354C433.014 366.597 432.696 366.804 432.3 366.974C431.904 367.145 431.42 367.23 430.849 367.23ZM431.079 365.875C431.676 365.875 432.179 365.758 432.588 365.523C433.001 365.289 433.312 364.987 433.521 364.616C433.734 364.245 433.84 363.855 433.84 363.446V362.065C433.777 362.142 433.636 362.212 433.419 362.276C433.206 362.336 432.958 362.389 432.677 362.436C432.4 362.479 432.13 362.517 431.865 362.551C431.605 362.581 431.394 362.607 431.233 362.628C430.84 362.679 430.474 362.762 430.133 362.877C429.796 362.988 429.524 363.156 429.315 363.382C429.11 363.604 429.008 363.906 429.008 364.29C429.008 364.814 429.202 365.21 429.59 365.479C429.982 365.743 430.478 365.875 431.079 365.875ZM439.611 353.909V367H438.102V353.909H439.611ZM443.882 353.909V367H442.374V353.909H443.882ZM450.634 367.205C449.748 367.205 448.97 366.994 448.301 366.572C447.636 366.15 447.116 365.56 446.741 364.801C446.37 364.043 446.185 363.156 446.185 362.142C446.185 361.119 446.37 360.227 446.741 359.464C447.116 358.701 447.636 358.109 448.301 357.687C448.97 357.265 449.748 357.054 450.634 357.054C451.52 357.054 452.296 357.265 452.961 357.687C453.63 358.109 454.15 358.701 454.52 359.464C454.895 360.227 455.083 361.119 455.083 362.142C455.083 363.156 454.895 364.043 454.52 364.801C454.15 365.56 453.63 366.15 452.961 366.572C452.296 366.994 451.52 367.205 450.634 367.205ZM450.634 365.849C451.307 365.849 451.861 365.677 452.296 365.332C452.731 364.987 453.052 364.533 453.261 363.97C453.47 363.408 453.574 362.798 453.574 362.142C453.574 361.486 453.47 360.874 453.261 360.308C453.052 359.741 452.731 359.283 452.296 358.933C451.861 358.584 451.307 358.409 450.634 358.409C449.961 358.409 449.407 358.584 448.972 358.933C448.537 359.283 448.216 359.741 448.007 360.308C447.798 360.874 447.694 361.486 447.694 362.142C447.694 362.798 447.798 363.408 448.007 363.97C448.216 364.533 448.537 364.987 448.972 365.332C449.407 365.677 449.961 365.849 450.634 365.849ZM461.374 367.205C460.454 367.205 459.661 366.987 458.996 366.553C458.332 366.118 457.82 365.519 457.462 364.756C457.104 363.994 456.925 363.122 456.925 362.142C456.925 361.145 457.109 360.265 457.475 359.502C457.846 358.735 458.361 358.136 459.022 357.706C459.687 357.271 460.462 357.054 461.349 357.054C462.039 357.054 462.661 357.182 463.215 357.438C463.769 357.693 464.223 358.051 464.577 358.511C464.93 358.972 465.15 359.509 465.235 360.122H463.726C463.611 359.675 463.356 359.278 462.959 358.933C462.567 358.584 462.039 358.409 461.374 358.409C460.786 358.409 460.271 358.562 459.827 358.869C459.388 359.172 459.045 359.6 458.798 360.154C458.555 360.704 458.434 361.349 458.434 362.091C458.434 362.849 458.553 363.51 458.792 364.072C459.035 364.635 459.376 365.072 459.815 365.383C460.258 365.694 460.778 365.849 461.374 365.849C461.766 365.849 462.122 365.781 462.442 365.645C462.761 365.509 463.032 365.312 463.253 365.057C463.475 364.801 463.633 364.494 463.726 364.136H465.235C465.15 364.716 464.939 365.238 464.602 365.702C464.27 366.163 463.829 366.529 463.279 366.802C462.734 367.07 462.099 367.205 461.374 367.205ZM470.329 367.23C469.707 367.23 469.143 367.113 468.636 366.879C468.128 366.64 467.726 366.297 467.427 365.849C467.129 365.398 466.98 364.852 466.98 364.213C466.98 363.651 467.091 363.195 467.312 362.845C467.534 362.491 467.83 362.214 468.201 362.014C468.572 361.814 468.981 361.665 469.428 361.567C469.88 361.464 470.334 361.384 470.79 361.324C471.386 361.247 471.87 361.19 472.241 361.151C472.616 361.109 472.888 361.038 473.059 360.94C473.234 360.842 473.321 360.672 473.321 360.429V360.378C473.321 359.747 473.148 359.257 472.803 358.908C472.462 358.558 471.945 358.384 471.25 358.384C470.53 358.384 469.965 358.541 469.556 358.857C469.147 359.172 468.859 359.509 468.693 359.866L467.261 359.355C467.517 358.759 467.858 358.294 468.284 357.962C468.714 357.625 469.183 357.391 469.69 357.259C470.202 357.122 470.704 357.054 471.199 357.054C471.514 357.054 471.876 357.092 472.285 357.169C472.699 357.241 473.097 357.393 473.481 357.623C473.869 357.853 474.19 358.2 474.446 358.665C474.702 359.129 474.829 359.751 474.829 360.531V367H473.321V365.67H473.244C473.142 365.884 472.972 366.112 472.733 366.354C472.494 366.597 472.177 366.804 471.78 366.974C471.384 367.145 470.9 367.23 470.329 367.23ZM470.56 365.875C471.156 365.875 471.659 365.758 472.068 365.523C472.481 365.289 472.793 364.987 473.001 364.616C473.214 364.245 473.321 363.855 473.321 363.446V362.065C473.257 362.142 473.116 362.212 472.899 362.276C472.686 362.336 472.439 362.389 472.158 362.436C471.881 362.479 471.61 362.517 471.346 362.551C471.086 362.581 470.875 362.607 470.713 362.628C470.321 362.679 469.954 362.762 469.614 362.877C469.277 362.988 469.004 363.156 468.795 363.382C468.591 363.604 468.489 363.906 468.489 364.29C468.489 364.814 468.682 365.21 469.07 365.479C469.462 365.743 469.959 365.875 470.56 365.875ZM481.853 357.182V358.46H476.765V357.182H481.853ZM478.248 354.83H479.756V364.188C479.756 364.614 479.818 364.933 479.941 365.146C480.069 365.355 480.231 365.496 480.427 365.568C480.628 365.636 480.839 365.67 481.06 365.67C481.226 365.67 481.363 365.662 481.469 365.645C481.576 365.624 481.661 365.607 481.725 365.594L482.032 366.949C481.929 366.987 481.787 367.026 481.603 367.064C481.42 367.107 481.188 367.128 480.907 367.128C480.481 367.128 480.063 367.036 479.654 366.853C479.249 366.67 478.912 366.391 478.644 366.016C478.38 365.641 478.248 365.168 478.248 364.597V354.83ZM488.133 367.205C487.187 367.205 486.371 366.996 485.685 366.578C485.003 366.156 484.477 365.568 484.106 364.814C483.739 364.055 483.556 363.173 483.556 362.168C483.556 361.162 483.739 360.276 484.106 359.509C484.477 358.737 484.992 358.136 485.653 357.706C486.318 357.271 487.093 357.054 487.979 357.054C488.491 357.054 488.996 357.139 489.494 357.31C489.993 357.48 490.447 357.757 490.856 358.141C491.265 358.52 491.591 359.023 491.834 359.649C492.077 360.276 492.198 361.047 492.198 361.963V362.602H484.63V361.298H490.664C490.664 360.744 490.553 360.25 490.332 359.815C490.114 359.381 489.803 359.038 489.399 358.786C488.998 358.535 488.525 358.409 487.979 358.409C487.379 358.409 486.859 358.558 486.42 358.857C485.985 359.151 485.651 359.534 485.416 360.007C485.182 360.48 485.065 360.987 485.065 361.528V362.398C485.065 363.139 485.193 363.768 485.448 364.283C485.708 364.795 486.068 365.185 486.528 365.453C486.989 365.717 487.524 365.849 488.133 365.849C488.529 365.849 488.887 365.794 489.207 365.683C489.531 365.568 489.81 365.398 490.044 365.172C490.278 364.942 490.46 364.656 490.587 364.315L492.045 364.724C491.891 365.219 491.634 365.653 491.271 366.028C490.909 366.399 490.462 366.689 489.929 366.898C489.396 367.102 488.798 367.205 488.133 367.205ZM498.2 367.205C497.382 367.205 496.66 366.998 496.033 366.585C495.407 366.167 494.917 365.579 494.563 364.82C494.21 364.058 494.033 363.156 494.033 362.116C494.033 361.085 494.21 360.19 494.563 359.432C494.917 358.673 495.409 358.087 496.04 357.674C496.671 357.261 497.399 357.054 498.226 357.054C498.865 357.054 499.37 357.161 499.741 357.374C500.116 357.582 500.401 357.821 500.597 358.089C500.798 358.354 500.953 358.571 501.064 358.741H501.192V353.909H502.7V367H501.243V365.491H501.064C500.953 365.67 500.796 365.896 500.591 366.169C500.386 366.437 500.095 366.678 499.715 366.891C499.336 367.1 498.831 367.205 498.2 367.205ZM498.405 365.849C499.01 365.849 499.521 365.692 499.939 365.376C500.357 365.057 500.674 364.616 500.891 364.053C501.109 363.487 501.217 362.832 501.217 362.091C501.217 361.358 501.111 360.717 500.898 360.167C500.685 359.613 500.369 359.183 499.952 358.876C499.534 358.565 499.019 358.409 498.405 358.409C497.766 358.409 497.233 358.573 496.807 358.901C496.385 359.225 496.068 359.666 495.854 360.224C495.646 360.778 495.541 361.401 495.541 362.091C495.541 362.79 495.648 363.425 495.861 363.996C496.078 364.562 496.398 365.014 496.82 365.351C497.246 365.683 497.774 365.849 498.405 365.849Z" fill="white"/>
<path d="M405.755 394.179C404.902 394.179 404.139 394.019 403.466 393.7C402.793 393.376 402.258 392.933 401.862 392.37C401.47 391.808 401.261 391.164 401.235 390.44H403.536C403.579 390.977 403.811 391.415 404.233 391.756C404.655 392.093 405.162 392.261 405.755 392.261C406.219 392.261 406.632 392.155 406.995 391.942C407.357 391.729 407.642 391.433 407.851 391.053C408.06 390.674 408.162 390.241 408.158 389.756C408.162 389.261 408.058 388.822 407.845 388.439C407.632 388.055 407.34 387.755 406.969 387.538C406.598 387.316 406.172 387.205 405.691 387.205C405.299 387.201 404.913 387.273 404.534 387.423C404.154 387.572 403.854 387.768 403.632 388.011L401.491 387.659L402.175 380.909H409.769V382.891H404.137L403.76 386.362H403.837C404.08 386.076 404.423 385.839 404.866 385.652C405.309 385.46 405.795 385.364 406.323 385.364C407.116 385.364 407.823 385.552 408.446 385.927C409.068 386.298 409.558 386.809 409.916 387.461C410.274 388.113 410.453 388.859 410.453 389.698C410.453 390.563 410.252 391.335 409.852 392.012C409.456 392.685 408.904 393.216 408.196 393.604C407.493 393.987 406.679 394.179 405.755 394.179ZM417.433 394.249C416.38 394.249 415.477 393.983 414.723 393.45C413.973 392.913 413.395 392.14 412.99 391.13C412.59 390.116 412.389 388.895 412.389 387.467C412.394 386.04 412.596 384.825 412.997 383.824C413.402 382.818 413.979 382.051 414.729 381.523C415.483 380.994 416.384 380.73 417.433 380.73C418.481 380.73 419.382 380.994 420.137 381.523C420.891 382.051 421.468 382.818 421.869 383.824C422.274 384.83 422.476 386.044 422.476 387.467C422.476 388.899 422.274 390.122 421.869 391.136C421.468 392.146 420.891 392.918 420.137 393.45C419.387 393.983 418.485 394.249 417.433 394.249ZM417.433 392.249C418.251 392.249 418.897 391.846 419.37 391.04C419.847 390.231 420.085 389.04 420.085 387.467C420.085 386.428 419.977 385.554 419.759 384.847C419.542 384.139 419.235 383.607 418.839 383.249C418.443 382.886 417.974 382.705 417.433 382.705C416.619 382.705 415.975 383.11 415.502 383.92C415.029 384.725 414.791 385.908 414.786 387.467C414.782 388.511 414.887 389.389 415.1 390.101C415.317 390.812 415.624 391.349 416.02 391.712C416.416 392.07 416.887 392.249 417.433 392.249ZM429.439 394.249C428.386 394.249 427.483 393.983 426.728 393.45C425.978 392.913 425.401 392.14 424.996 391.13C424.596 390.116 424.395 388.895 424.395 387.467C424.4 386.04 424.602 384.825 425.003 383.824C425.407 382.818 425.985 382.051 426.735 381.523C427.489 380.994 428.39 380.73 429.439 380.73C430.487 380.73 431.388 380.994 432.142 381.523C432.897 382.051 433.474 382.818 433.875 383.824C434.28 384.83 434.482 386.044 434.482 387.467C434.482 388.899 434.28 390.122 433.875 391.136C433.474 392.146 432.897 392.918 432.142 393.45C431.392 393.983 430.491 394.249 429.439 394.249ZM429.439 392.249C430.257 392.249 430.902 391.846 431.375 391.04C431.853 390.231 432.091 389.04 432.091 387.467C432.091 386.428 431.983 385.554 431.765 384.847C431.548 384.139 431.241 383.607 430.845 383.249C430.449 382.886 429.98 382.705 429.439 382.705C428.625 382.705 427.981 383.11 427.508 383.92C427.035 384.725 426.797 385.908 426.792 387.467C426.788 388.511 426.892 389.389 427.106 390.101C427.323 390.812 427.63 391.349 428.026 391.712C428.422 392.07 428.893 392.249 429.439 392.249ZM438.838 392.21L438.755 392.913C438.695 393.45 438.589 393.996 438.435 394.55C438.286 395.108 438.129 395.621 437.962 396.09C437.796 396.559 437.662 396.928 437.56 397.196H436C436.06 396.936 436.141 396.582 436.243 396.135C436.35 395.688 436.452 395.185 436.55 394.626C436.648 394.068 436.714 393.501 436.748 392.926L436.793 392.21H438.838ZM445.734 394.249C444.681 394.249 443.778 393.983 443.023 393.45C442.273 392.913 441.696 392.14 441.291 391.13C440.891 390.116 440.69 388.895 440.69 387.467C440.695 386.04 440.897 384.825 441.297 383.824C441.702 382.818 442.28 382.051 443.03 381.523C443.784 380.994 444.685 380.73 445.734 380.73C446.782 380.73 447.683 380.994 448.437 381.523C449.192 382.051 449.769 382.818 450.17 383.824C450.574 384.83 450.777 386.044 450.777 387.467C450.777 388.899 450.574 390.122 450.17 391.136C449.769 392.146 449.192 392.918 448.437 393.45C447.687 393.983 446.786 394.249 445.734 394.249ZM445.734 392.249C446.552 392.249 447.197 391.846 447.67 391.04C448.148 390.231 448.386 389.04 448.386 387.467C448.386 386.428 448.278 385.554 448.06 384.847C447.843 384.139 447.536 383.607 447.14 383.249C446.744 382.886 446.275 382.705 445.734 382.705C444.92 382.705 444.276 383.11 443.803 383.92C443.33 384.725 443.092 385.908 443.087 387.467C443.083 388.511 443.187 389.389 443.4 390.101C443.618 390.812 443.925 391.349 444.321 391.712C444.717 392.07 445.188 392.249 445.734 392.249ZM457.739 394.249C456.687 394.249 455.783 393.983 455.029 393.45C454.279 392.913 453.702 392.14 453.297 391.13C452.896 390.116 452.696 388.895 452.696 387.467C452.7 386.04 452.903 384.825 453.303 383.824C453.708 382.818 454.286 382.051 455.036 381.523C455.79 380.994 456.691 380.73 457.739 380.73C458.788 380.73 459.689 380.994 460.443 381.523C461.198 382.051 461.775 382.818 462.176 383.824C462.58 384.83 462.783 386.044 462.783 387.467C462.783 388.899 462.58 390.122 462.176 391.136C461.775 392.146 461.198 392.918 460.443 393.45C459.693 393.983 458.792 394.249 457.739 394.249ZM457.739 392.249C458.558 392.249 459.203 391.846 459.676 391.04C460.153 390.231 460.392 389.04 460.392 387.467C460.392 386.428 460.283 385.554 460.066 384.847C459.849 384.139 459.542 383.607 459.146 383.249C458.749 382.886 458.281 382.705 457.739 382.705C456.926 382.705 456.282 383.11 455.809 383.92C455.336 384.725 455.097 385.908 455.093 387.467C455.089 388.511 455.193 389.389 455.406 390.101C455.624 390.812 455.93 391.349 456.327 391.712C456.723 392.07 457.194 392.249 457.739 392.249ZM469.745 394.249C468.693 394.249 467.789 393.983 467.035 393.45C466.285 392.913 465.708 392.14 465.303 391.13C464.902 390.116 464.702 388.895 464.702 387.467C464.706 386.04 464.909 384.825 465.309 383.824C465.714 382.818 466.291 382.051 467.041 381.523C467.796 380.994 468.697 380.73 469.745 380.73C470.794 380.73 471.695 380.994 472.449 381.523C473.203 382.051 473.781 382.818 474.181 383.824C474.586 384.83 474.789 386.044 474.789 387.467C474.789 388.899 474.586 390.122 474.181 391.136C473.781 392.146 473.203 392.918 472.449 393.45C471.699 393.983 470.798 394.249 469.745 394.249ZM469.745 392.249C470.563 392.249 471.209 391.846 471.682 391.04C472.159 390.231 472.398 389.04 472.398 387.467C472.398 386.428 472.289 385.554 472.072 384.847C471.855 384.139 471.548 383.607 471.152 383.249C470.755 382.886 470.286 382.705 469.745 382.705C468.931 382.705 468.288 383.11 467.815 383.92C467.342 384.725 467.103 385.908 467.099 387.467C467.095 388.511 467.199 389.389 467.412 390.101C467.63 390.812 467.936 391.349 468.333 391.712C468.729 392.07 469.2 392.249 469.745 392.249ZM481.978 387.455C481.978 385.857 482.189 384.388 482.611 383.05C483.037 381.708 483.67 380.468 484.509 379.33H486.689C486.365 379.752 486.063 380.27 485.781 380.884C485.5 381.493 485.255 382.162 485.046 382.891C484.842 383.615 484.68 384.367 484.56 385.147C484.445 385.927 484.388 386.696 484.388 387.455C484.388 388.464 484.488 389.487 484.688 390.523C484.893 391.558 485.168 392.519 485.513 393.406C485.862 394.288 486.254 395.01 486.689 395.572H484.509C483.67 394.435 483.037 393.197 482.611 391.859C482.189 390.516 481.978 389.048 481.978 387.455ZM493.012 394.179C492.16 394.179 491.397 394.019 490.724 393.7C490.051 393.376 489.516 392.933 489.12 392.37C488.728 391.808 488.519 391.164 488.493 390.44H490.794C490.837 390.977 491.069 391.415 491.491 391.756C491.913 392.093 492.42 392.261 493.012 392.261C493.477 392.261 493.89 392.155 494.252 391.942C494.615 391.729 494.9 391.433 495.109 391.053C495.318 390.674 495.42 390.241 495.416 389.756C495.42 389.261 495.316 388.822 495.103 388.439C494.889 388.055 494.598 387.755 494.227 387.538C493.856 387.316 493.43 387.205 492.948 387.205C492.556 387.201 492.171 387.273 491.791 387.423C491.412 387.572 491.112 387.768 490.89 388.011L488.749 387.659L489.433 380.909H497.027V382.891H491.395L491.018 386.362H491.095C491.338 386.076 491.681 385.839 492.124 385.652C492.567 385.46 493.053 385.364 493.581 385.364C494.374 385.364 495.081 385.552 495.703 385.927C496.326 386.298 496.816 386.809 497.174 387.461C497.532 388.113 497.71 388.859 497.71 389.698C497.71 390.563 497.51 391.335 497.11 392.012C496.713 392.685 496.161 393.216 495.454 393.604C494.751 393.987 493.937 394.179 493.012 394.179ZM506.851 391.545V390.855C506.851 390.348 506.958 389.881 507.171 389.455C507.388 389.029 507.703 388.686 508.117 388.426C508.53 388.166 509.031 388.036 509.619 388.036C510.224 388.036 510.731 388.166 511.14 388.426C511.549 388.682 511.858 389.023 512.067 389.449C512.28 389.875 512.387 390.344 512.387 390.855V391.545C512.387 392.053 512.28 392.519 512.067 392.945C511.854 393.371 511.541 393.714 511.127 393.974C510.718 394.234 510.215 394.364 509.619 394.364C509.022 394.364 508.517 394.234 508.104 393.974C507.691 393.714 507.377 393.371 507.164 392.945C506.956 392.519 506.851 392.053 506.851 391.545ZM508.519 390.855V391.545C508.519 391.882 508.6 392.191 508.762 392.472C508.924 392.754 509.21 392.894 509.619 392.894C510.032 392.894 510.316 392.756 510.469 392.479C510.627 392.197 510.706 391.886 510.706 391.545V390.855C510.706 390.514 510.631 390.203 510.482 389.922C510.333 389.636 510.045 389.494 509.619 389.494C509.218 389.494 508.935 389.636 508.769 389.922C508.603 390.203 508.519 390.514 508.519 390.855ZM500.197 384.054V383.364C500.197 382.852 500.306 382.384 500.523 381.957C500.74 381.531 501.056 381.19 501.469 380.935C501.882 380.675 502.383 380.545 502.971 380.545C503.572 380.545 504.077 380.675 504.486 380.935C504.899 381.19 505.21 381.531 505.419 381.957C505.628 382.384 505.733 382.852 505.733 383.364V384.054C505.733 384.565 505.626 385.034 505.413 385.46C505.204 385.882 504.893 386.221 504.48 386.477C504.066 386.732 503.563 386.86 502.971 386.86C502.37 386.86 501.863 386.732 501.45 386.477C501.041 386.221 500.73 385.88 500.517 385.454C500.304 385.028 500.197 384.561 500.197 384.054ZM501.878 383.364V384.054C501.878 384.395 501.957 384.706 502.115 384.987C502.277 385.264 502.562 385.403 502.971 385.403C503.38 385.403 503.661 385.264 503.815 384.987C503.973 384.706 504.051 384.395 504.051 384.054V383.364C504.051 383.023 503.977 382.712 503.828 382.43C503.679 382.145 503.393 382.002 502.971 382.002C502.566 382.002 502.283 382.145 502.121 382.43C501.959 382.716 501.878 383.027 501.878 383.364ZM500.926 394L509.926 380.909H511.524L502.524 394H500.926ZM519.194 387.455C519.194 389.048 518.981 390.516 518.555 391.859C518.133 393.197 517.502 394.435 516.663 395.572H514.483C514.811 395.151 515.114 394.635 515.391 394.026C515.672 393.416 515.915 392.747 516.12 392.018C516.328 391.29 516.49 390.536 516.605 389.756C516.725 388.976 516.784 388.209 516.784 387.455C516.784 386.445 516.682 385.422 516.478 384.386C516.277 383.351 516.002 382.39 515.653 381.504C515.308 380.617 514.918 379.893 514.483 379.33H516.663C517.502 380.468 518.133 381.708 518.555 383.05C518.981 384.388 519.194 385.857 519.194 387.455Z" fill="white"/>
<line x1="220.25" y1="362.001" x2="220.25" y2="311.978" stroke="#F58620" stroke-width="3" stroke-dasharray="8 8"/>
<line x1="221.996" y1="364.25" x2="353.029" y2="364.25" stroke="#F58620" stroke-width="3" stroke-dasharray="8 8"/>
<circle cx="360.5" cy="366.5" r="7.5" fill="#F58620"/>
<line x1="258.994" y1="250.261" x2="353.007" y2="250.261" stroke="#E12A2A" stroke-width="3" stroke-dasharray="8 8"/>
<circle cx="360.5" cy="250.5" r="7.5" fill="#E12A2A"/>
<line x1="251" y1="147.5" x2="358" y2="147.5" stroke="#DBC60B" stroke-width="3" stroke-dasharray="8 8"/>
<circle cx="360.5" cy="146.5" r="7.5" fill="#DBC60B"/>
<line x1="164.995" y1="24.5" x2="353.005" y2="24.5" stroke="#59EAFE" stroke-width="3" stroke-dasharray="8 8"/>
<line x1="156" y1="26.3555" x2="156" y2="96.176" stroke="#59EAFE" stroke-width="3" stroke-dasharray="8 8"/>
<circle cx="360.5" cy="24.5" r="7.5" fill="#59EAFE"/>
</svg>
