<svg width="131" height="37" viewBox="0 0 131 37" fill="none" xmlns="http://www.w3.org/2000/svg">
<path d="M14.7656 3.54688V2H10.2656V3.54688H8.50781V0.242188H16.5234V2.35156H18.6328V3.54688H14.7656ZM7.80469 31.25V33.043H12.3047V31.25H20.6719V32.4102H16.1719V36.9102H8.15625V34.8008H6.04688V32.4102H3.65625V31.25H7.80469ZM13.7109 31.707V29H18.2109V26.75H20.4609V17.75H18.2109V15.5H13.7109V14.375H24.3281V17.1172H22.2188V18.1016H24.3281V30.6172H22.0781V31.707H13.7109ZM5.0625 31.707V30.7578H2.95312V30.6172H2.8125V28.5078H0.703125V20.4922H2.8125V19.5078H0.703125V14.375H2.46094V17.75H4.71094V20H9.21094V24.5H6.96094V22.25H2.46094V26.75H4.71094V29H9.21094V31.707H5.0625ZM14.4844 14.375V12.4414H16.7344V13.25H21.2344V12.4414H25.1016V14.375H14.4844ZM1.47656 14.375V12.4414H3.23438V14.375H1.47656ZM13.7109 12.4414V11H15.9609V12.4414H13.7109ZM20.4609 12.4414V8.75H18.2109V6.5H13.7109V3.54688H17.5781V4.74219H19.9688V6.85156H22.0781V6.99219H22.2188V9.10156H24.3281V12.4414H20.4609ZM0.703125 12.4414V6.99219H2.95312V4.74219H7.45312V3.54688H9.21094V6.5H4.71094V8.75H2.46094V12.4414H0.703125ZM6.96094 12.4414V11H9.21094V12.4414H6.96094ZM9.21094 14.375V15.5H6.96094V14.375H9.21094ZM7.73438 14.375V12.4414H9.98438V14.375H7.73438ZM13.7109 24.5V20H15.9609V24.5H13.7109ZM27.4922 15.3945V13.1797H29.25V15.3945H27.4922ZM27.4922 25.7305V29H31.9922V25.7305H35.8594V32.8672H27.8438V30.7578H25.7344V25.7305H27.4922ZM29.1797 25.7305V24.7812H33.0469V25.7305H29.1797ZM22.9219 25.7305V24.7812H24.6797V25.7305H22.9219ZM31.9922 24.7812V20H43.2422V17.75H45.4922V8.75H43.2422V6.5H27.4922V13.1797H25.7344V4.74219H45V6.85156H47.1094V6.99219H47.25V9.10156H49.3594V21.6172H47.1094V23.8672H35.8594V24.7812H31.9922ZM25.7344 24.7812V15.3945H27.4922V24.7812H25.7344ZM31.9922 13.1797V11H40.9922V13.1797H31.9922ZM44.1562 13.1797V15.5H35.1562V13.1797H44.1562ZM32.0273 7.27344V7.69531H35.8945V7.27344H32.0273ZM32.0273 8.1875V8.60938H35.8945V8.1875H32.0273ZM32.0273 9.10156V9.52344H35.8945V9.10156H32.0273ZM32.0273 10.0156V10.4375H35.8945V10.0156H32.0273ZM43.6641 25.7305V26.1523H35.8242V25.7305H43.6641ZM43.6641 26.6445V27.0664H35.8242V26.6445H43.6641ZM43.6641 27.5586V27.9805H35.8242V27.5586H43.6641ZM43.6641 28.4727V28.8945H35.8242V28.4727H43.6641ZM75.0234 9.94531V6.5H70.5234V8.75H68.2734V9.94531H64.2656V9.24219H66.5156V6.99219H68.7656V4.74219H76.7812V6.85156H78.8906V9.94531H75.0234ZM67.3242 9.94531V11H65.0742V13.25H60.5742V11H58.3242V9.94531H62.332V11.3516H63.3164V9.94531H67.3242ZM59.2734 9.94531V8.75H57.0234V6.5H52.5234V9.94531H50.7656V4.74219H58.7812V6.85156H60.8906V6.99219H61.0312V9.10156H63.1406V9.24219H63.2812V9.94531H59.2734ZM59.2734 16.3086V20H57.0234V22.25H54.7734V24.5H52.5234V29H57.0234V26.75H59.2734V24.5H61.5234V22.25H66.0234V24.5H68.2734V26.75H70.5234V29H75.0234V24.5H72.7734V22.25H70.5234V20H68.2734V16.3086H76.6406V17.1172H74.3906V19.3672H72.2812V20.3516H74.3906V20.4922H74.5312V22.6016H76.6406V22.7422H76.7812V24.8516H78.8906V32.8672H70.875V30.7578H68.7656V30.6172H68.625V28.5078H66.5156V28.3672H66.375V26.2578H65.3906V28.3672H63.1406V30.6172H60.8906V32.8672H52.875V30.7578H50.7656V22.7422H53.0156V20.4922H55.2656V18.2422H57.375V17.2578H55.2656V17.1172H55.125V16.3086H59.2734ZM67.3242 16.3086V15.5H69.5742V13.25H71.8242V11H74.0742V9.94531H77.9414V14.8672H75.6914V16.3086H67.3242ZM54.1758 16.3086V15.0078H52.0664V14.8672H51.9258V12.7578H49.8164V9.94531H51.5742V11H53.8242V13.25H56.0742V15.5H58.3242V16.3086H54.1758ZM55.2656 31.4258V32.0586H64.793V31.4258H55.2656ZM87.6445 9.91016V6.5H83.1445V9.91016H81.3867V4.74219H89.4023V6.85156H91.5117V9.91016H87.6445ZM83.1445 11.9492V20.7734H81.3867V11.9492H83.1445ZM80.2969 11.9492V9.91016H82.0547V11.9492H80.2969ZM91.5117 11.9492V20.7734H87.6445V11.9492H91.5117ZM86.5547 11.9492V9.91016H90.4219V11.9492H86.5547ZM101.074 32.1289V33.5H79.5586V32.1289H101.074ZM82.4062 31.4961V30.7578H80.2969V20.7734H82.0547V29H100.055V24.5H86.5547V20.7734H90.4219V22.7422H101.812V24.8516H103.922V31.4961H82.4062ZM81.9492 21.2305V21.6523H78.082V21.2305H81.9492ZM81.9492 22.1445V22.5664H78.082V22.1445H81.9492ZM81.9492 23.0586V23.4805H78.082V23.0586H81.9492ZM81.9492 23.9727V24.3945H78.082V23.9727H81.9492ZM87.6445 14.6914V15.1133H91.5117V14.6914H87.6445ZM87.6445 15.6055V16.0273H91.5117V15.6055H87.6445ZM87.6445 16.5195V16.9414H91.5117V16.5195H87.6445ZM87.6445 17.4336V17.8555H91.5117V17.4336H87.6445ZM87.75 21.2305V21.6523H101.812V21.2305H87.75ZM87.75 22.1445V22.5664H101.812V22.1445H87.75ZM87.75 23.0586V23.4805H101.812V23.0586H87.75ZM109.688 32.8672V30.7578H107.578V30.6172H107.438V28.5078H105.328V18.2422H107.438V17.2578H105.328V6.99219H107.578V4.74219H124.594V6.85156H126.703V6.99219H126.844V9.10156H128.953V19.3672H126.844V20.3516H128.953V30.6172H126.703V32.8672H109.688ZM122.836 29V26.75H125.086V20H122.836V15.5H125.086V8.75H122.836V6.5H109.336V8.75H107.086V15.5H109.336V20H107.086V26.75H109.336V29H122.836ZM111.586 15.5V11H120.586V15.5H111.586ZM112.395 22.0391V20H121.395V22.0391H112.395ZM120.586 22.0391V24.5H111.586V22.0391H120.586ZM126.809 21.6172V22.4961H130.43V21.6172H126.809ZM122.906 16.168V16.625H126.773V16.168H122.906ZM122.906 17.1172V17.5742H126.773V17.1172H122.906ZM122.906 18.0664V18.5234H126.773V18.0664H122.906ZM122.906 19.0156V19.4727H126.773V19.0156H122.906ZM116.684 11.5625V12.0195H120.551V11.5625H116.684ZM116.684 12.5117V12.9688H120.551V12.5117H116.684ZM116.684 13.4609V13.918H120.551V13.4609H116.684ZM116.684 14.4102V14.8672H120.551V14.4102H116.684ZM111.129 25.1328V25.5898H109.371V25.1328H111.129ZM111.129 26.082V26.5391H109.371V26.082H111.129ZM111.129 27.0312V27.4883H109.371V27.0312H111.129ZM111.129 27.9805V28.4375H109.371V27.9805H111.129ZM112.887 25.1328V25.5898H111.129V25.1328H112.887ZM112.887 26.082V26.5391H111.129V26.082H112.887ZM112.887 27.0312V27.4883H111.129V27.0312H112.887ZM112.887 27.9805V28.4375H111.129V27.9805H112.887ZM112.184 8.71484H111.762V6.28906H112.184V8.71484ZM111.27 8.71484H110.848V6.28906H111.27V8.71484ZM110.355 8.71484H109.934V6.28906H110.355V8.71484Z" fill="url(#paint0_linear_94_515)"/>
<defs>
<linearGradient id="paint0_linear_94_515" x1="4.5" y1="6" x2="130" y2="6" gradientUnits="userSpaceOnUse">
<stop stop-color="#DB4BFF"/>
<stop offset="0.46875" stop-color="#597DFE"/>
<stop offset="0.75" stop-color="#302A56"/>
<stop offset="0.927083" stop-color="#DB4BFF"/>
</linearGradient>
</defs>
</svg>
