<svg width="331" height="108" viewBox="0 0 331 108" fill="none" xmlns="http://www.w3.org/2000/svg">
<g filter="url(#filter0_d_67_3)">
<path d="M40.2734 11.1953V7.5H29.5234V11.1953H25.3242V3.30078H44.4727V8.33984H49.5117V11.1953H40.2734ZM23.6445 77.375V81.6582H34.3945V77.375H54.3828V80.1465H43.6328V90.8965H24.4844V85.8574H19.4453V80.1465H13.7344V77.375H23.6445ZM37.7539 78.4668V72H48.5039V66.625H53.8789V45.125H48.5039V39.75H37.7539V37.0625H63.1172V43.6133H58.0781V45.9648H63.1172V75.8633H57.7422V78.4668H37.7539ZM17.0938 78.4668V76.1992H12.0547V75.8633H11.7188V70.8242H6.67969V51.6758H11.7188V49.3242H6.67969V37.0625H10.8789V45.125H16.2539V50.5H27.0039V61.25H21.6289V55.875H10.8789V66.625H16.2539V72H27.0039V78.4668H17.0938ZM39.6016 37.0625V32.4434H44.9766V34.375H55.7266V32.4434H64.9648V37.0625H39.6016ZM8.52734 37.0625V32.4434H12.7266V37.0625H8.52734ZM37.7539 32.4434V29H43.1289V32.4434H37.7539ZM53.8789 32.4434V23.625H48.5039V18.25H37.7539V11.1953H46.9922V14.0508H52.7031V19.0898H57.7422V19.4258H58.0781V24.4648H63.1172V32.4434H53.8789ZM6.67969 32.4434V19.4258H12.0547V14.0508H22.8047V11.1953H27.0039V18.25H16.2539V23.625H10.8789V32.4434H6.67969ZM21.6289 32.4434V29H27.0039V32.4434H21.6289ZM27.0039 37.0625V39.75H21.6289V37.0625H27.0039ZM23.4766 37.0625V32.4434H28.8516V37.0625H23.4766ZM37.7539 61.25V50.5H43.1289V61.25H37.7539ZM70.6758 39.498V34.207H74.875V39.498H70.6758ZM70.6758 64.1895V72H81.4258V64.1895H90.6641V81.2383H71.5156V76.1992H66.4766V64.1895H70.6758ZM74.707 64.1895V61.9219H83.9453V64.1895H74.707ZM59.7578 64.1895V61.9219H63.957V64.1895H59.7578ZM81.4258 61.9219V50.5H108.301V45.125H113.676V23.625H108.301V18.25H70.6758V34.207H66.4766V14.0508H112.5V19.0898H117.539V19.4258H117.875V24.4648H122.914V54.3633H117.539V59.7383H90.6641V61.9219H81.4258ZM66.4766 61.9219V39.498H70.6758V61.9219H66.4766ZM81.4258 34.207V29H102.926V34.207H81.4258ZM110.484 34.207V39.75H88.9844V34.207H110.484ZM81.5098 20.0977V21.1055H90.748V20.0977H81.5098ZM81.5098 22.2812V23.2891H90.748V22.2812H81.5098ZM81.5098 24.4648V25.4727H90.748V24.4648H81.5098ZM81.5098 26.6484V27.6562H90.748V26.6484H81.5098ZM109.309 64.1895V65.1973H90.5801V64.1895H109.309ZM109.309 66.373V67.3809H90.5801V66.373H109.309ZM109.309 68.5566V69.5645H90.5801V68.5566H109.309ZM109.309 70.7402V71.748H90.5801V70.7402H109.309ZM184.223 26.4805V18.25H173.473V23.625H168.098V26.4805H158.523V24.8008H163.898V19.4258H169.273V14.0508H188.422V19.0898H193.461V26.4805H184.223ZM165.83 26.4805V29H160.455V34.375H149.705V29H144.33V26.4805H153.904V29.8398H156.256V26.4805H165.83ZM146.598 26.4805V23.625H141.223V18.25H130.473V26.4805H126.273V14.0508H145.422V19.0898H150.461V19.4258H150.797V24.4648H155.836V24.8008H156.172V26.4805H146.598ZM146.598 41.6816V50.5H141.223V55.875H135.848V61.25H130.473V72H141.223V66.625H146.598V61.25H151.973V55.875H162.723V61.25H168.098V66.625H173.473V72H184.223V61.25H178.848V55.875H173.473V50.5H168.098V41.6816H188.086V43.6133H182.711V48.9883H177.672V51.3398H182.711V51.6758H183.047V56.7148H188.086V57.0508H188.422V62.0898H193.461V81.2383H174.312V76.1992H169.273V75.8633H168.938V70.8242H163.898V70.4883H163.562V65.4492H161.211V70.4883H155.836V75.8633H150.461V81.2383H131.312V76.1992H126.273V57.0508H131.648V51.6758H137.023V46.3008H142.062V43.9492H137.023V43.6133H136.688V41.6816H146.598ZM165.83 41.6816V39.75H171.205V34.375H176.58V29H181.955V26.4805H191.193V38.2383H185.818V41.6816H165.83ZM134.42 41.6816V38.5742H129.381V38.2383H129.045V33.1992H124.006V26.4805H128.205V29H133.58V34.375H138.955V39.75H144.33V41.6816H134.42ZM137.023 77.7949V79.3066H159.783V77.7949H137.023ZM214.373 26.3965V18.25H203.623V26.3965H199.424V14.0508H218.572V19.0898H223.611V26.3965H214.373ZM203.623 31.2676V52.3477H199.424V31.2676H203.623ZM196.82 31.2676V26.3965H201.02V31.2676H196.82ZM223.611 31.2676V52.3477H214.373V31.2676H223.611ZM211.77 31.2676V26.3965H221.008V31.2676H211.77ZM246.455 79.4746V82.75H195.057V79.4746H246.455ZM201.859 77.9629V76.1992H196.82V52.3477H201.02V72H244.02V61.25H211.77V52.3477H221.008V57.0508H248.219V62.0898H253.258V77.9629H201.859ZM200.768 53.4395V54.4473H191.529V53.4395H200.768ZM200.768 55.623V56.6309H191.529V55.623H200.768ZM200.768 57.8066V58.8145H191.529V57.8066H200.768ZM200.768 59.9902V60.998H191.529V59.9902H200.768ZM214.373 37.8184V38.8262H223.611V37.8184H214.373ZM214.373 40.002V41.0098H223.611V40.002H214.373ZM214.373 42.1855V43.1934H223.611V42.1855H214.373ZM214.373 44.3691V45.377H223.611V44.3691H214.373ZM214.625 53.4395V54.4473H248.219V53.4395H214.625ZM214.625 55.623V56.6309H248.219V55.623H214.625ZM214.625 57.8066V58.8145H248.219V57.8066H214.625ZM267.031 81.2383V76.1992H261.992V75.8633H261.656V70.8242H256.617V46.3008H261.656V43.9492H256.617V19.4258H261.992V14.0508H302.641V19.0898H307.68V19.4258H308.016V24.4648H313.055V48.9883H308.016V51.3398H313.055V75.8633H307.68V81.2383H267.031ZM298.441 72V66.625H303.816V50.5H298.441V39.75H303.816V23.625H298.441V18.25H266.191V23.625H260.816V39.75H266.191V50.5H260.816V66.625H266.191V72H298.441ZM271.566 39.75V29H293.066V39.75H271.566ZM273.498 55.3711V50.5H294.998V55.3711H273.498ZM293.066 55.3711V61.25H271.566V55.3711H293.066ZM307.932 54.3633V56.4629H316.582V54.3633H307.932ZM298.609 41.3457V42.4375H307.848V41.3457H298.609ZM298.609 43.6133V44.7051H307.848V43.6133H298.609ZM298.609 45.8809V46.9727H307.848V45.8809H298.609ZM298.609 48.1484V49.2402H307.848V48.1484H298.609ZM283.744 30.3438V31.4355H292.982V30.3438H283.744ZM283.744 32.6113V33.7031H292.982V32.6113H283.744ZM283.744 34.8789V35.9707H292.982V34.8789H283.744ZM283.744 37.1465V38.2383H292.982V37.1465H283.744ZM270.475 62.7617V63.8535H266.275V62.7617H270.475ZM270.475 65.0293V66.1211H266.275V65.0293H270.475ZM270.475 67.2969V68.3887H266.275V67.2969H270.475ZM270.475 69.5645V70.6562H266.275V69.5645H270.475ZM274.674 62.7617V63.8535H270.475V62.7617H274.674ZM274.674 65.0293V66.1211H270.475V65.0293H274.674ZM274.674 67.2969V68.3887H270.475V67.2969H274.674ZM274.674 69.5645V70.6562H270.475V69.5645H274.674ZM272.994 23.541H271.986V17.7461H272.994V23.541ZM270.811 23.541H269.803V17.7461H270.811V23.541ZM268.627 23.541H267.619V17.7461H268.627V23.541Z" fill="url(#paint0_linear_67_3)"/>
</g>
<defs>
<filter id="filter0_d_67_3" x="0.679688" y="0.300781" width="329.902" height="107.596" filterUnits="userSpaceOnUse" color-interpolation-filters="sRGB">
<feFlood flood-opacity="0" result="BackgroundImageFix"/>
<feColorMatrix in="SourceAlpha" type="matrix" values="0 0 0 0 0 0 0 0 0 0 0 0 0 0 0 0 0 0 127 0" result="hardAlpha"/>
<feOffset dx="4" dy="7"/>
<feGaussianBlur stdDeviation="5"/>
<feComposite in2="hardAlpha" operator="out"/>
<feColorMatrix type="matrix" values="0 0 0 0 0.210139 0 0 0 0 0.123611 0 0 0 0 0.741667 0 0 0 0.97 0"/>
<feBlend mode="normal" in2="BackgroundImageFix" result="effect1_dropShadow_67_3"/>
<feBlend mode="normal" in="SourceGraphic" in2="effect1_dropShadow_67_3" result="shape"/>
</filter>
<linearGradient id="paint0_linear_67_3" x1="15.7308" y1="18" x2="315" y2="18" gradientUnits="userSpaceOnUse">
<stop stop-color="#DB4BFF"/>
<stop offset="0.549141" stop-color="#597DFE"/>
<stop offset="0.895383" stop-color="#231962"/>
<stop offset="0.963541" stop-color="#8779DC"/>
</linearGradient>
</defs>
</svg>
