<svg width="35" height="51" viewBox="0 0 35 51" fill="none" xmlns="http://www.w3.org/2000/svg">
<path d="M20.5078 4.64844V2.5H14.2578V4.64844H11.8164V0.0585938H22.9492V2.98828H25.8789V4.64844H20.5078ZM10.8398 43.125V45.6152H17.0898V43.125H28.7109V44.7363H22.4609V50.9863H11.3281V48.0566H8.39844V44.7363H5.07812V43.125H10.8398ZM19.043 43.7598V40H25.293V36.875H28.418V24.375H25.293V21.25H19.043V19.6875H33.7891V23.4961H30.8594V24.8633H33.7891V42.2461H30.6641V43.7598H19.043ZM7.03125 43.7598V42.4414H4.10156V42.2461H3.90625V39.3164H0.976562V28.1836H3.90625V26.8164H0.976562V19.6875H3.41797V24.375H6.54297V27.5H12.793V33.75H9.66797V30.625H3.41797V36.875H6.54297V40H12.793V43.7598H7.03125ZM20.1172 19.6875V17.002H23.2422V18.125H29.4922V17.002H34.8633V19.6875H20.1172ZM2.05078 19.6875V17.002H4.49219V19.6875H2.05078ZM19.043 17.002V15H22.168V17.002H19.043ZM28.418 17.002V11.875H25.293V8.75H19.043V4.64844H24.4141V6.30859H27.7344V9.23828H30.6641V9.43359H30.8594V12.3633H33.7891V17.002H28.418ZM0.976562 17.002V9.43359H4.10156V6.30859H10.3516V4.64844H12.793V8.75H6.54297V11.875H3.41797V17.002H0.976562ZM9.66797 17.002V15H12.793V17.002H9.66797ZM12.793 19.6875V21.25H9.66797V19.6875H12.793ZM10.7422 19.6875V17.002H13.8672V19.6875H10.7422ZM19.043 33.75V27.5H22.168V33.75H19.043Z" fill="url(#paint0_linear_88_358)"/>
<defs>
<linearGradient id="paint0_linear_88_358" x1="1.21154" y1="9" x2="35" y2="9" gradientUnits="userSpaceOnUse">
<stop stop-color="#DB4BFF"/>
<stop offset="0.46875" stop-color="#597DFE"/>
<stop offset="0.75" stop-color="#302A56"/>
<stop offset="0.927083" stop-color="#DB4BFF"/>
</linearGradient>
</defs>
</svg>
